<svg version="1" xmlns="http://www.w3.org/2000/svg" width="933.333" height="933.333" viewBox="0 0 700.000000 700.000000"><path d="M295.1 166.5c-29.8 39.8-54.1 72.8-53.9 73.3.5 1.5 108.3 145.1 108.8 145.1s108.3-143.6 108.8-145.1C459.2 238.9 351 94 350 94c-.3 0-25 32.6-54.9 72.5zM87.2 443.5L0 560h175V443.5c0-64.1-.1-116.5-.2-116.5-.2.1-39.6 52.5-87.6 116.5z"/><path d="M233 443.5V560h58.8l28.8-38.5c15.9-21.2 29.1-38.5 29.4-38.5.3 0 13.5 17.3 29.4 38.5l28.8 38.5H467V443.5c0-64.1-.1-116.5-.3-116.5-.1 0-26.3 34.9-58.2 77.5-31.9 42.6-58.2 77.4-58.5 77.4-.3 0-26.6-34.8-58.5-77.4-31.9-42.6-58.1-77.5-58.2-77.5-.2 0-.3 52.4-.3 116.5zM525 443.3V560h175l-87.1-116.3c-48-63.9-87.3-116.4-87.5-116.6-.2-.2-.4 52.1-.4 116.2z"/></svg>