<?xml version="1.0" standalone="no"?>
<!DOCTYPE svg PUBLIC "-//W3C//DTD SVG 1.1//EN" "http://www.w3.org/Graphics/SVG/1.1/DTD/svg11.dtd" >
<svg xmlns="http://www.w3.org/2000/svg" xmlns:xlink="http://www.w3.org/1999/xlink" version="1.1">
<metadata></metadata>
<defs>
<font id="metropolisregular" horiz-adv-x="1212" >
<font-face units-per-em="2048" ascent="1628" descent="-420" />
<missing-glyph horiz-adv-x="593" />
<glyph horiz-adv-x="0" />
<glyph horiz-adv-x="682" />
<glyph unicode=" "  horiz-adv-x="593" />
<glyph unicode="&#x09;" horiz-adv-x="593" />
<glyph unicode="&#xa0;" horiz-adv-x="593" />
<glyph unicode="!" horiz-adv-x="559" d="M170 88q0 43 33 76t80 33q45 0 76.5 -33t31.5 -76q0 -47 -31.5 -80t-76.5 -33q-47 0 -80 33t-33 80zM190 1407h189l-41 -1012h-109z" />
<glyph unicode="&#x22;" horiz-adv-x="847" d="M145 1288q0 39 28 66.5t67 27.5t66.5 -27.5t27.5 -66.5q0 -86 -35 -317q0 -4 -14 -92h-90q-15 88 -15 92q-35 231 -35 317zM514 1288q0 39 28 66.5t67 27.5t66.5 -27.5t27.5 -66.5q0 -86 -35 -317q0 -4 -14 -92h-90q-15 88 -15 92q-35 231 -35 317z" />
<glyph unicode="#" horiz-adv-x="1380" d="M80 367l31 125h231l107 421h-234l31 125h235l92 369h136l-93 -369h308l92 369h135l-92 -369h239l-30 -125h-242l-106 -421h241l-31 -125h-241l-92 -367h-135l92 367h-308l-92 -367h-135l92 367h-231zM477 492h307l107 421h-307z" />
<glyph unicode="$" horiz-adv-x="1255" d="M94 201l101 125q158 -158 346 -193v518q-201 51 -299.5 136t-98.5 245q0 100 51.5 186.5t141.5 141.5t205 70v124h159v-124q225 -29 408 -197l-98 -125q-147 141 -310 170v-492q217 -53 331 -143t114 -260q0 -166 -116 -277.5t-329 -125.5v-132h-159v136 q-258 33 -447 217zM305 1044q0 -81 57.5 -130.5t178.5 -84.5v453q-104 -18 -170 -85t-66 -153zM700 125q134 10 208.5 79.5t74.5 164.5q0 92 -68.5 146t-214.5 95v-485z" />
<glyph unicode="%" horiz-adv-x="1630" d="M96 1063q0 100 42 181t117 128t169 47t169 -47t116 -128t41 -177q0 -98 -42 -179t-117 -127t-169 -46t-169 47t-116 127t-41 174zM225 1065q0 -102 57.5 -171t141.5 -69q86 0 141.5 69t55.5 171q0 104 -56.5 174t-142.5 70t-141.5 -69t-55.5 -175zM268 0l963 1407h135 l-963 -1407h-135zM879 332q0 96 42 177t116.5 128t168.5 47t169 -47t116 -128t41 -175q0 -100 -42 -181t-117 -127t-169 -46q-92 0 -166.5 46t-116.5 126.5t-42 179.5zM1008 334q0 -104 56 -174t142 -70t141.5 68.5t55.5 173.5q0 102 -56.5 171.5t-142.5 69.5t-141 -68.5 t-55 -170.5z" />
<glyph unicode="&#x26;" horiz-adv-x="1372" d="M84 373q0 137 79 238.5t243 172.5q-61 84 -90 158t-29 152q0 92 46 166.5t128 118.5t184 44q92 0 168 -44t120 -118.5t44 -162.5q0 -129 -86 -208t-258 -147q125 -145 321 -352q98 145 160 316l133 -60q-100 -223 -194 -356l233 -238l-145 -67l-185 186 q-190 -197 -430 -197q-125 0 -226 48.5t-158.5 138.5t-57.5 211zM238 377q0 -121 85 -192.5t209 -71.5q176 -1 326 159q-238 246 -373 410q-119 -55 -183 -132t-64 -173zM440 1094q0 -111 111 -252q147 57 209.5 112.5t62.5 139.5q0 82 -50 137t-128 55q-90 0 -147.5 -52 t-57.5 -140z" />
<glyph unicode="'" horiz-adv-x="479" d="M145 1288q0 39 28 66.5t67 27.5t66.5 -27.5t27.5 -66.5q0 -86 -35 -317q0 -4 -14 -92h-90q-15 88 -15 92q-35 231 -35 317z" />
<glyph unicode="(" horiz-adv-x="731" d="M127 543q0 264 110.5 490.5t317.5 400.5l82 -86q-174 -180 -260 -371t-86 -434q0 -242 86 -433.5t260 -369.5l-82 -88q-207 174 -317.5 401.5t-110.5 489.5z" />
<glyph unicode=")" horiz-adv-x="731" d="M94 -260q174 178 260 369.5t86 433.5q0 244 -86 434t-260 371l82 86q207 -174 317.5 -400.5t110.5 -490.5q0 -262 -110.5 -489.5t-317.5 -401.5z" />
<glyph unicode="*" horiz-adv-x="837" d="M121 965q0 27 22 39q57 33 150 65l88 35l-88 35q-92 33 -150 65q-23 12 -22 39q0 10 8 27q8 14 20.5 21t24.5 7t21 -6q47 -27 129 -96q49 -41 75 -59q-8 61 -14 92q-2 12 -10 64.5t-8 99.5q0 18 15 31.5t36 13.5q20 0 35.5 -13.5t15.5 -31.5q0 -47 -8 -99.5t-10 -64.5 q-6 -31 -15 -92q27 18 76 59q82 70 129 96q8 6 21 6q12 0 24 -7t21 -21q8 -16 8 -27q0 -27 -23 -39q-57 -33 -149 -65l-88 -35l88 -35q92 -33 149 -65q23 -12 23 -39q0 -10 -8 -27q-8 -14 -20.5 -21.5t-24.5 -7.5t-21 6q-47 27 -129 97q-49 41 -76 59q8 -61 15 -92 q2 -12 10 -64.5t8 -99.5q0 -18 -15.5 -31.5t-35.5 -13.5q-21 0 -36 13.5t-15 31.5q0 47 8 99.5t10 64.5q6 31 14 92q-27 -18 -75 -59q-82 -70 -129 -97q-10 -6 -21 -6q-12 0 -24.5 7.5t-20.5 21.5q-8 16 -8 27z" />
<glyph unicode="+" horiz-adv-x="1214" d="M137 608v152h393v395h154v-395h393v-152h-393v-393h-154v393h-393z" />
<glyph unicode="," horiz-adv-x="540" d="M158 88q0 45 32.5 77t79.5 32q57 0 91 -46.5t34 -117.5q0 -61 -32.5 -126t-124.5 -179l-76 57q82 94 106 190q-45 0 -77.5 33t-32.5 80z" />
<glyph unicode="-" horiz-adv-x="759" d="M115 481v150h530v-150h-530z" />
<glyph unicode="." horiz-adv-x="518" d="M150 88q0 43 32.5 76t79.5 33q45 0 77 -33t32 -76q0 -47 -32 -80t-77 -33q-47 0 -79.5 33t-32.5 80z" />
<glyph unicode="/" horiz-adv-x="849" d="M-33 -152l719 1674h174l-719 -1674h-174z" />
<glyph unicode="0" horiz-adv-x="1411" d="M121 705q0 211 74.5 375.5t208 258t303.5 93.5q168 0 301 -93.5t207.5 -258.5t74.5 -375q0 -211 -74.5 -377t-206.5 -259.5t-302 -93.5t-303.5 93.5t-208 259.5t-74.5 377zM283 705q0 -168 54 -300.5t150.5 -207t219.5 -74.5q122 0 218.5 74.5t149.5 207t53 300.5 t-53 300t-149.5 205.5t-218.5 73.5q-123 0 -219.5 -73.5t-150.5 -206t-54 -299.5z" />
<glyph unicode="1" horiz-adv-x="722" d="M53 1171l346 236h129v-1407h-159v1212l-246 -159z" />
<glyph unicode="2" horiz-adv-x="1206" d="M100 0v133l514 438q147 127 214 232.5t67 212.5q0 82 -41 144.5t-108.5 95t-143.5 32.5q-117 0 -208 -57t-169 -162l-112 92q190 270 495 271q123 0 225.5 -51.5t163 -145.5t60.5 -217q0 -141 -77 -267t-255 -280l-369 -319h715v-152h-971z" />
<glyph unicode="3" horiz-adv-x="1200" d="M82 217l111 105q72 -94 174 -147.5t227 -53.5q147 0 237.5 73.5t90.5 194.5q0 123 -96.5 186.5t-266.5 63.5h-149v147l151 -2q145 -2 237.5 64.5t92.5 183.5q0 111 -89 182.5t-222 71.5q-111 0 -199 -51t-168 -148l-107 97q186 248 482 248q133 0 238.5 -48.5t166 -135.5 t60.5 -197q0 -127 -77 -211t-196 -119q125 -29 214 -115t89 -225q0 -117 -61 -209t-173 -144.5t-255 -52.5q-166 0 -298 67t-214 175z" />
<glyph unicode="4" horiz-adv-x="1275" d="M82 475l698 932h185v-920h211v-145h-211v-342h-160v342h-703zM264 487h541v727z" />
<glyph unicode="5" horiz-adv-x="1226" d="M115 199l104 116q180 -197 397 -196q96 0 172 41t118 112.5t42 159.5q0 135 -94 219t-242 84q-168 0 -313 -108l-117 57l21 723h831v-152h-676l-14 -473q139 94 301 95q129 0 234.5 -52.5t168 -152t62.5 -234.5q0 -137 -64.5 -242.5t-178 -163t-257.5 -57.5 q-155 0 -279 59.5t-216 164.5z" />
<glyph unicode="6" horiz-adv-x="1275" d="M123 682q0 207 75.5 379t206 271.5t287.5 99.5q123 0 219.5 -43t180.5 -125l-88 -125q-74 72 -148 109.5t-168 37.5q-111 0 -203 -81t-146 -219t-54 -304v-18q66 102 169 158.5t228 56.5q129 0 236.5 -52.5t171 -152t63.5 -234.5q0 -129 -63.5 -235.5t-176 -168 t-256.5 -61.5q-272 0 -403 193.5t-131 513.5zM303 479q33 -168 122 -267t230 -99q101 0 177.5 46t117.5 119.5t41 153.5q0 141 -96 225t-242 84q-133 0 -228 -72.5t-122 -189.5z" />
<glyph unicode="7" horiz-adv-x="1228" d="M121 1255v152h952v-121l-606 -1286h-184l600 1255h-762z" />
<glyph unicode="8" horiz-adv-x="1241" d="M106 369q0 127 87.5 221t224.5 137q-127 49 -201 132t-74 200q0 113 66.5 197.5t176.5 130t235 45.5q127 0 236.5 -46.5t176 -131.5t66.5 -197q0 -121 -77 -203t-198 -127q135 -45 222.5 -139t87.5 -219q0 -117 -68 -206t-185.5 -138.5t-260.5 -49.5q-146 0 -262.5 49.5 t-184.5 138.5t-68 206zM268 379q0 -76 47 -134.5t128 -91t178 -32.5q96 0 177 32.5t128 91t47 134.5q0 80 -55.5 141.5t-137.5 95t-159 35.5q-78 -2 -160 -35.5t-137.5 -95t-55.5 -141.5zM305 1042q0 -78 49 -133t122 -84.5t145 -33.5q73 4 147 34.5t122 86t48 130.5 q0 70 -42 125.5t-114.5 87t-160.5 31.5q-133 0 -224.5 -69.5t-91.5 -174.5z" />
<glyph unicode="9" horiz-adv-x="1275" d="M123 967q0 129 63.5 235.5t176 168t255.5 61.5q273 0 404 -194t131 -513q0 -207 -76 -379t-206 -271.5t-287 -99.5q-123 0 -219.5 43t-180.5 125l88 125q74 -72 148 -109.5t168 -37.5q111 0 203 81t146 219t54 304v18q-66 -102 -169 -158.5t-228 -56.5 q-129 0 -236.5 52.5t-171 151.5t-63.5 235zM285 975q0 -141 96 -225t242 -84q133 0 228 72.5t122 189.5q-33 168 -122 267t-230 99q-100 0 -177 -46t-118 -119.5t-41 -153.5z" />
<glyph unicode=":" horiz-adv-x="518" d="M150 88q0 43 32.5 76t79.5 33q45 0 77 -33t32 -76q0 -47 -32 -80t-77 -33q-47 0 -79.5 33t-32.5 80zM150 938q0 43 32.5 76t79.5 33q45 0 77 -33t32 -76q0 -47 -32 -80t-77 -33q-47 0 -79.5 33t-32.5 80z" />
<glyph unicode=";" horiz-adv-x="540" d="M158 88q0 45 32.5 77t79.5 32q57 0 91 -46.5t34 -117.5q0 -61 -32.5 -126t-124.5 -179l-76 57q82 94 106 190q-45 0 -77.5 33t-32.5 80zM158 938q0 43 32.5 76t79.5 33q45 0 77 -33t32 -76q0 -47 -32 -80t-77 -33q-47 0 -79.5 33t-32.5 80z" />
<glyph unicode="&#x3c;" horiz-adv-x="1200" d="M113 643v121l931 463v-144l-780 -378l780 -379v-146z" />
<glyph unicode="=" horiz-adv-x="1214" d="M137 383v152h940v-152h-940zM137 834v151h940v-151h-940z" />
<glyph unicode="&#x3e;" horiz-adv-x="1200" d="M156 180v146l780 379l-780 378v144l931 -463v-121z" />
<glyph unicode="?" horiz-adv-x="1038" d="M55 1196q188 236 463 236q127 0 225.5 -49.5t151.5 -135.5t53 -190q0 -90 -52 -172t-145.5 -142.5t-211.5 -85.5v-262h-162v383q119 10 212 47t145 94.5t52 122.5q0 63 -33.5 120t-97 90.5t-145.5 33.5q-106 0 -190 -51t-160 -143zM346 88q0 43 33 76t80 33 q45 0 76.5 -33t31.5 -76q0 -47 -31.5 -80t-76.5 -33q-47 0 -80 33t-33 80z" />
<glyph unicode="@" horiz-adv-x="1804" d="M90 530q0 227 117 424t313.5 312.5t425.5 115.5q205 0 382 -99t281.5 -267t104.5 -363q0 -160 -53 -271.5t-137 -166.5t-178 -55t-157 47t-79 129q-61 -80 -146 -128t-186 -48q-150 0 -245 98t-95 256q0 139 68.5 257t179.5 186.5t229 68.5q102 0 173 -46t108 -120 l27 135l137 -10l-35 -174q-74 -373 -74 -420q0 -63 37 -99t98 -36t120 42t96.5 131t37.5 224q0 174 -95 325.5t-256 241t-347 89.5q-207 0 -385 -105.5t-283.5 -285t-105.5 -386.5q0 -186 96 -346.5t260 -256t353 -95.5q127 0 228 28.5t214 96.5l37 -55 q-119 -76 -231.5 -109t-252.5 -33q-208 0 -388.5 104.5t-287 282t-106.5 381.5zM586 522q0 -109 62.5 -175t166.5 -66q139 0 229.5 100t106.5 256q2 14 2 45q0 104 -55.5 163.5t-163.5 59.5q-92 0 -172 -53t-128 -141t-48 -189z" />
<glyph unicode="A" horiz-adv-x="1546" d="M66 0l620 1407h174l621 -1407h-174l-142 319h-784l-141 -319h-174zM446 471h654l-326 739z" />
<glyph unicode="B" horiz-adv-x="1396" d="M193 0v1407h645q113 0 200.5 -45t137 -125t49.5 -180q0 -106 -50.5 -178t-150.5 -131q123 -61 189.5 -154.5t66.5 -208.5q0 -111 -53 -199t-148.5 -137t-216.5 -49h-669zM352 145h469q131 0 214 73t83 188t-83 187.5t-214 72.5h-469v-521zM352 811h445q117 0 191.5 63.5 t74.5 161.5t-75 162t-191 64h-445v-451z" />
<glyph unicode="C" horiz-adv-x="1392" d="M106 705q0 195 98.5 361.5t265.5 266t357 99.5q143 0 274.5 -56.5t231.5 -158.5l-108 -111q-78 84 -181.5 131t-216.5 47q-150 0 -277.5 -79t-204.5 -213t-77 -287q0 -156 77 -289t205 -213t277 -80q113 0 216.5 47t181.5 131l108 -111q-100 -100 -231 -157.5t-275 -57.5 q-190 0 -357 99.5t-265.5 267.5t-98.5 363z" />
<glyph unicode="D" horiz-adv-x="1560" d="M193 0v1407h475q221 0 394 -90t270.5 -250t97.5 -362q0 -203 -97.5 -364t-270.5 -251t-394 -90h-475zM352 145h316q174 0 310 72t213 199t77 289t-77 287.5t-213 197.5t-310 72h-316v-1117z" />
<glyph unicode="E" horiz-adv-x="1284" d="M162 0v1407h1009v-152h-847v-462h763v-152h-763v-489h847v-152h-1009z" />
<glyph unicode="F" horiz-adv-x="1247" d="M162 0v1407h1009v-152h-847v-462h763v-152h-763v-641h-162z" />
<glyph unicode="G" horiz-adv-x="1525" d="M106 705q0 195 98.5 361.5t265.5 266t357 99.5q147 0 299 -58.5t248 -156.5l-108 -111q-76 80 -199 129t-240 49q-150 0 -277.5 -79t-204.5 -213t-77 -287q0 -156 77 -289t205 -213t277 -80q98 0 204 36t183 95v336h-403v151h563v-551q-98 -98 -248.5 -156.5 t-298.5 -58.5q-190 0 -357 99.5t-265.5 267.5t-98.5 363z" />
<glyph unicode="H" horiz-adv-x="1472" d="M162 0v1407h160v-614h829v614h160v-1407h-160v641h-829v-641h-160z" />
<glyph unicode="I" horiz-adv-x="483" d="M162 0v1407h160v-1407h-160z" />
<glyph unicode="J" horiz-adv-x="1105" d="M53 209l117 115q41 -88 130 -145.5t185 -57.5q125 0 205 94t80 244v948h160v-948q0 -139 -56.5 -250t-158 -172.5t-230.5 -61.5q-125 0 -246.5 65.5t-185.5 168.5z" />
<glyph unicode="K" horiz-adv-x="1351" d="M188 0v1407h160v-778l713 778h211l-592 -643l631 -764h-207l-535 655l-221 -233v-422h-160z" />
<glyph unicode="L" horiz-adv-x="1136" d="M139 0v1407h160v-1255h768v-152h-928z" />
<glyph unicode="M" horiz-adv-x="1748" d="M193 0v1407h159l522 -981l523 981h159v-1407h-159v1063l-523 -981l-522 981v-1063h-159z" />
<glyph unicode="N" horiz-adv-x="1576" d="M193 0v1407h159l873 -1145v1145h159v-1407h-159l-873 1145v-1145h-159z" />
<glyph unicode="O" horiz-adv-x="1652" d="M106 705q0 195 98.5 361.5t265.5 266t357 99.5q193 0 358 -99.5t263 -266.5t98 -361q0 -195 -98 -363t-263 -267.5t-358 -99.5q-190 0 -357 99.5t-265.5 267.5t-98.5 363zM268 705q0 -156 77 -289t205 -213t277 -80q150 0 278 80t203.5 213t75.5 289q0 154 -75.5 287.5 t-203.5 212.5t-278 79t-277.5 -79t-204.5 -213t-77 -287z" />
<glyph unicode="P" horiz-adv-x="1318" d="M162 0v1407h571q143 0 262 -57.5t187.5 -161t68.5 -232.5t-68.5 -232t-187 -160.5t-262.5 -57.5h-411v-506h-160zM322 657h383q174 0 279.5 80t105.5 219t-105.5 219t-279.5 80h-383v-598z" />
<glyph unicode="Q" horiz-adv-x="1652" d="M106 705q0 195 98.5 361.5t265.5 266t357 99.5q193 0 358 -99.5t263 -266.5t98 -361q0 -123 -41 -238t-116 -211l157 -137l-102 -119l-164 143q-96 -80 -212 -124t-241 -44q-190 0 -357 99.5t-265.5 267.5t-98.5 363zM268 705q0 -156 77 -289t205 -213t277 -80 q93 0 179 31.5t157 89.5l-219 190l103 119l225 -195q53 74 82.5 163t29.5 184q0 154 -75.5 287.5t-203.5 212.5t-278 79t-277.5 -79t-204.5 -213t-77 -287z" />
<glyph unicode="R" horiz-adv-x="1331" d="M162 0v1407h571q143 0 262 -57.5t187.5 -161t68.5 -232.5q0 -163 -106.5 -281t-276.5 -155l365 -520h-182l-357 506h-372v-506h-160zM322 657h383q174 0 279.5 80t105.5 219t-105.5 219t-279.5 80h-383v-598z" />
<glyph unicode="S" horiz-adv-x="1255" d="M94 201l101 125q96 -96 208.5 -149.5t251.5 -53.5q104 0 178 33.5t112 90t38 122.5q0 106 -89 162.5t-290 103.5q-154 37 -253 82t-153.5 121.5t-54.5 193.5q0 111 61.5 203t169 145.5t240.5 53.5q150 0 270 -52.5t224 -148.5l-98 -125q-90 86 -192.5 133t-211.5 47 q-84 0 -153.5 -33.5t-108.5 -90t-39 -120.5q0 -100 88 -152t291 -101q225 -53 343 -144.5t118 -263.5q0 -115 -56.5 -207t-169 -145.5t-270.5 -53.5q-328 1 -555 224z" />
<glyph unicode="T" horiz-adv-x="1290" d="M92 1255v152h1106v-152h-473v-1255h-160v1255h-473z" />
<glyph unicode="U" horiz-adv-x="1527" d="M176 584v823h160v-823q0 -133 55 -238.5t152.5 -165t220.5 -59.5t220 59.5t152.5 165t55.5 238.5v823h160v-823q0 -176 -75 -314.5t-209 -216.5t-304 -78t-304 78t-209 216.5t-75 314.5z" />
<glyph unicode="V" horiz-adv-x="1546" d="M66 1407h174l534 -1210l533 1210h174l-621 -1407h-174z" />
<glyph unicode="W" horiz-adv-x="2213" d="M76 1407h180l389 -1139l373 1139h178l373 -1139l389 1139h180l-481 -1407h-158l-391 1198l-393 -1198h-158z" />
<glyph unicode="X" horiz-adv-x="1427" d="M78 0l538 702l-538 705h196l441 -576l440 576h195l-539 -702l539 -705h-197l-440 575l-441 -575h-194z" />
<glyph unicode="Y" horiz-adv-x="1374" d="M37 1407h199l452 -682l457 682h192l-565 -834v-573h-168v573z" />
<glyph unicode="Z" horiz-adv-x="1308" d="M119 0v127l848 1128h-834v152h1053v-127l-850 -1128h858v-152h-1075z" />
<glyph unicode="[" horiz-adv-x="749" d="M166 -236v1739h483v-117h-348v-1505h348v-117h-483z" />
<glyph unicode="\" horiz-adv-x="849" d="M-10 1522h174l719 -1674h-174z" />
<glyph unicode="]" horiz-adv-x="749" d="M100 -119h349v1505h-349v117h484v-1739h-484v117z" />
<glyph unicode="^" horiz-adv-x="1003" d="M111 846l331 561h121l330 -561h-133l-258 448l-260 -448h-131z" />
<glyph unicode="_" d="M-4 -154h1221v-137h-1221v137z" />
<glyph unicode="`" horiz-adv-x="667" d="M129 1438l162 37l248 -295h-119z" />
<glyph unicode="a" horiz-adv-x="1173" d="M102 313q0 102 56.5 183.5t152 125.5t207.5 44q160 0 344 -60v39q0 129 -65.5 218t-221.5 89q-72 0 -146.5 -25.5t-162.5 -70.5l-61 125q205 102 381 102q211 0 320.5 -119.5t109.5 -318.5v-645h-154v166q-55 -90 -158.5 -140.5t-214.5 -50.5q-170 0 -278.5 92.5 t-108.5 245.5zM252 319q0 -96 74.5 -152t189.5 -56t216.5 58t129.5 163v162q-156 43 -319 43q-121 0 -206 -61.5t-85 -156.5z" />
<glyph unicode="b" horiz-adv-x="1306" d="M170 0v1432h154v-572q61 106 160.5 164.5t224.5 58.5q137 0 248.5 -70.5t175 -196.5t63.5 -286t-63.5 -286.5t-175 -197.5t-248.5 -71q-125 0 -224.5 58.5t-160.5 165.5v-199h-154zM324 530q0 -121 45 -216t127 -148t184 -53t183 53t126 148.5t45 215.5q0 121 -45 215.5 t-126 147.5t-183 53t-184 -53t-127 -147.5t-45 -215.5z" />
<glyph unicode="c" horiz-adv-x="1110" d="M98 530q0 147 75 274.5t202 203t272 75.5q106 0 203.5 -41t173.5 -114l-106 -105q-53 57 -123 90t-148 33q-104 0 -193 -56t-141.5 -152.5t-52.5 -207.5q0 -113 52.5 -208t141.5 -152t193 -57q78 0 149.5 33.5t127.5 95.5l106 -105q-76 -76 -175 -119t-208 -43 q-145 0 -272 76t-202 204t-75 275z" />
<glyph unicode="d" horiz-adv-x="1306" d="M111 530q0 160 63.5 286t175 196.5t248.5 70.5q125 0 224.5 -58t160.5 -165v572h154v-1432h-154v199q-61 -106 -160.5 -165t-224.5 -59q-137 0 -248.5 71t-175 198t-63.5 286zM272 530q0 -121 45 -216t126 -148t184 -53q102 0 184 53t127 148.5t45 215.5q0 121 -45 215.5 t-127 147.5t-184 53t-183.5 -53t-126.5 -147.5t-45 -215.5z" />
<glyph unicode="e" horiz-adv-x="1218" d="M98 532q0 154 71 281t190.5 198.5t261.5 71.5q238 0 369.5 -165.5t131.5 -446.5h-866q16 -158 119.5 -258t257.5 -100q94 0 189.5 36.5t144.5 90.5l94 -101q-68 -74 -189.5 -119t-236.5 -45q-141 0 -264 72t-198 200t-75 285zM258 608h713q-16 152 -104.5 245t-239.5 93 q-144 0 -246 -93t-123 -245z" />
<glyph unicode="f" horiz-adv-x="718" d="M76 922v137h166v145q0 119 72.5 195t185.5 76q111 0 196 -68l-75 -113q-18 18 -47 30.5t-64 12.5q-47 0 -81 -37.5t-34 -95.5v-145h260v-137h-260v-922h-153v922h-166z" />
<glyph unicode="g" horiz-adv-x="1302" d="M106 582q0 145 62.5 259.5t173.5 178t252 63.5q125 0 224.5 -54t160.5 -152v182h154v-946q0 -135 -67 -240.5t-184.5 -165t-269.5 -59.5q-125 0 -239.5 39t-188.5 102l68 121q61 -59 151.5 -92t188.5 -33q182 0 284.5 86t102.5 242v172q-61 -98 -160.5 -152.5 t-224.5 -54.5q-141 0 -252 64.5t-173.5 179t-62.5 260.5zM268 582q0 -106 45 -189.5t126 -130.5t184 -47q102 0 184 47t127 130t45 190q0 104 -45 187t-127 130t-184 47t-183.5 -47t-126.5 -130t-45 -187z" />
<glyph unicode="h" d="M158 0v1432h153v-543q47 86 142.5 140t205.5 54q115 0 206 -52t141.5 -145t50.5 -212v-674h-154v653q0 129 -73.5 211t-190.5 82q-88 0 -163 -37t-120 -100.5t-45 -134.5v-674h-153z" />
<glyph unicode="i" horiz-adv-x="460" d="M129 1354q0 41 29.5 70.5t72.5 29.5q41 0 71 -29.5t30 -70.5t-30 -72t-71 -31q-43 0 -72.5 31t-29.5 72zM154 0v1059h153v-1059h-153z" />
<glyph unicode="j" horiz-adv-x="460" d="M-117 -332l25 127q25 -10 62.5 -16t68.5 -6q51 0 83 36.5t32 96.5v1153h153v-1153q0 -119 -72.5 -195t-185.5 -76q-43 0 -89 9.5t-77 23.5zM129 1354q0 41 29.5 70.5t72.5 29.5q41 0 71 -29.5t30 -70.5t-30 -72t-71 -31q-43 0 -72.5 31t-29.5 72z" />
<glyph unicode="k" horiz-adv-x="1112" d="M154 0v1432h153v-959l580 586h196l-477 -486l451 -573h-193l-366 469l-191 -188v-281h-153z" />
<glyph unicode="l" horiz-adv-x="464" d="M156 0v1432h153v-1432h-153z" />
<glyph unicode="m" horiz-adv-x="1832" d="M156 0v1059h153v-156q41 84 122 132t185 48q119 0 209 -60t133 -165q33 102 127.5 163.5t214.5 61.5q109 0 195 -52t134 -145t48 -212v-674h-153v653q0 129 -69 211t-175 82q-127 0 -207 -76.5t-80 -195.5v-674h-153v653q0 129 -69 211t-175 82q-127 0 -207 -76.5 t-80 -195.5v-674h-153z" />
<glyph unicode="n" d="M158 0v1059h153v-170q47 86 142.5 140t205.5 54q115 0 206 -52t141.5 -145t50.5 -212v-674h-154v653q0 129 -73.5 211t-190.5 82q-88 0 -163 -37t-120 -100.5t-45 -134.5v-674h-153z" />
<glyph unicode="o" horiz-adv-x="1292" d="M98 530q0 147 75 274.5t202 203t272 75.5t271 -75.5t201 -202.5t75 -275q0 -147 -75 -275t-200.5 -204t-271.5 -76q-145 0 -272 76t-202 204t-75 275zM260 530q0 -113 52.5 -208t141.5 -152t193 -57q103 0 192 57t141 152.5t52 207.5q0 111 -52 207.5t-141 152.5t-192 56 q-104 0 -193 -56t-141.5 -152.5t-52.5 -207.5z" />
<glyph unicode="p" horiz-adv-x="1306" d="M170 -352v1411h154v-199q61 106 160.5 164.5t224.5 58.5q137 0 248.5 -70.5t175 -196.5t63.5 -286t-63.5 -286.5t-175 -197.5t-248.5 -71q-125 0 -224.5 58.5t-160.5 165.5v-551h-154zM324 530q0 -121 45 -216t127 -148t184 -53t183 53t126 148.5t45 215.5 q0 121 -45 215.5t-126 147.5t-183 53t-184 -53t-127 -147.5t-45 -215.5z" />
<glyph unicode="q" horiz-adv-x="1306" d="M111 530q0 160 63.5 286t175 196.5t248.5 70.5q125 0 224.5 -58t160.5 -165v199h154v-1411h-154v551q-61 -106 -160.5 -165t-224.5 -59q-137 0 -248.5 71t-175 198t-63.5 286zM272 530q0 -121 45 -216t126 -148t184 -53q102 0 184 53t127 148.5t45 215.5q0 121 -45 215.5 t-127 147.5t-184 53t-183.5 -53t-126.5 -147.5t-45 -215.5z" />
<glyph unicode="r" horiz-adv-x="790" d="M170 0v1059h154v-207q47 106 155.5 168.5t253.5 62.5v-137q-119 0 -212 -45t-145 -126t-52 -183v-592h-154z" />
<glyph unicode="s" horiz-adv-x="1015" d="M92 133l80 113q182 -133 358 -133q104 0 169 45t65 121q0 53 -35 88.5t-87 56t-144 47.5q-195 55 -275 121.5t-80 179.5q0 141 104.5 226t266.5 85q96 0 194.5 -31.5t184.5 -86.5l-74 -119q-158 100 -305 100q-94 0 -155.5 -41t-61.5 -114q0 -45 26.5 -74t80 -51.5 t167.5 -59.5q113 -35 182.5 -67.5t117 -91t47.5 -152.5q0 -143 -110 -231.5t-278 -88.5q-112 0 -228 41t-210 117z" />
<glyph unicode="t" horiz-adv-x="757" d="M76 922v137h166v291h153v-291h260v-137h-260v-676q0 -57 34 -95t81 -38q35 0 63.5 12t47.5 31l75 -113q-86 -68 -196 -68q-113 0 -185.5 76t-72.5 195v676h-166z" />
<glyph unicode="u" d="M156 385v674h153v-653q0 -129 74 -211t190 -82q88 0 163 36.5t120 100t45 135.5v674h154v-1059h-154v170q-47 -86 -142 -140.5t-206 -54.5q-115 0 -206 52.5t-141 145.5t-50 212z" />
<glyph unicode="v" horiz-adv-x="1153" d="M55 1059h172l353 -879l346 879h172l-445 -1059h-147z" />
<glyph unicode="w" horiz-adv-x="1705" d="M72 1059h164l264 -854l288 854h134l288 -854l265 854h163l-356 -1059h-145l-281 846l-285 -846h-145z" />
<glyph unicode="x" horiz-adv-x="1128" d="M66 0l409 541l-393 518h180l303 -400l301 400h181l-392 -518l408 -541h-180l-318 422l-319 -422h-180z" />
<glyph unicode="y" horiz-adv-x="1214" d="M61 1059h170l371 -881l350 881h166l-483 -1178q-53 -131 -131 -189.5t-191 -60.5q-92 0 -168 35l37 131q51 -26 120 -26h5q53 0 88 20.5t66 73.5l61 131z" />
<glyph unicode="z" horiz-adv-x="1052" d="M111 0v121l624 792h-612v146h819v-121l-627 -793h631v-145h-835z" />
<glyph unicode="{" horiz-adv-x="806" d="M88 487v113q109 0 155 46t46 149v286q0 111 38 179.5t127 109.5t246 57l13 -108q-125 -18 -185.5 -45t-83 -72t-22.5 -129l2 -295q0 -94 -38 -150.5t-116 -82.5q78 -29 116 -85.5t38 -150.5l-2 -293q0 -86 23.5 -132t84 -71.5t183.5 -43.5l-13 -109q-157 16 -246 57 t-127 111t-38 178v289q0 102 -46 147t-155 45z" />
<glyph unicode="|" horiz-adv-x="569" d="M223 -152v1674h123v-1674h-123z" />
<glyph unicode="}" horiz-adv-x="806" d="M94 -231q123 18 183.5 43.5t84 71.5t23.5 132l-2 293q0 94 38 150.5t116 85.5q-78 27 -116 83t-38 150l2 295q0 84 -22.5 129t-83 71.5t-185.5 45.5l12 108q158 -16 247 -57t127 -109.5t38 -179.5v-286q0 -102 46 -148.5t155 -46.5v-113q-109 0 -155 -45t-46 -147v-289 q0 -109 -38 -178.5t-127 -110.5t-247 -57z" />
<glyph unicode="~" horiz-adv-x="911" d="M127 625q33 244 197 244q43 0 74.5 -18.5t82.5 -57.5q35 -31 57.5 -45.5t49.5 -14.5q41 0 65.5 33t36.5 107l95 -15q-33 -244 -197 -243q-43 0 -75 18t-83 57q-35 31 -57.5 45.5t-48.5 14.5q-41 0 -65.5 -33t-37.5 -106z" />
<glyph unicode="&#xa1;" horiz-adv-x="559" d="M168 971q0 47 31.5 79.5t76.5 32.5q48 0 80.5 -32.5t32.5 -79.5q0 -43 -32.5 -76t-80.5 -33q-45 0 -76.5 33t-31.5 76zM180 -348l41 1012h109l39 -1012h-189z" />
<glyph unicode="&#xa2;" horiz-adv-x="1110" d="M98 530q0 129 58.5 245t160 195t224.5 103v133h159v-125q92 -10 174 -50t150 -103l-106 -105q-90 100 -218 119v-825q129 23 224 125l106 -105q-67 -67 -151 -108t-179 -52v-129h-159v138q-123 27 -224.5 105.5t-160 194t-58.5 244.5zM260 530q0 -139 80 -250.5 t201 -150.5v801q-121 -39 -201 -150.5t-80 -249.5z" />
<glyph unicode="&#xa3;" horiz-adv-x="1267" d="M113 0v78l133 74v383h-127v137h127v276q0 139 56 250t157.5 172.5t230.5 61.5q141 0 262 -66t170 -168l-116 -115q-27 88 -115 145.5t-201 57.5q-125 0 -204.5 -94t-79.5 -244v-276h413v-137h-413v-383h768v-152h-1061z" />
<glyph unicode="&#xa5;" horiz-adv-x="1374" d="M37 1407h199l452 -682l457 682h192l-497 -733h356v-137h-424v-164h424v-137h-424v-236h-168v236h-424v137h424v164h-424v137h357z" />
<glyph unicode="&#xa8;" horiz-adv-x="839" d="M129 1317q0 37 27.5 65.5t66.5 28.5t66.5 -28.5t27.5 -65.5q0 -39 -27.5 -66.5t-66.5 -27.5t-66.5 27.5t-27.5 66.5zM522 1317q0 37 28 65.5t66 28.5q39 0 67 -28.5t28 -65.5q0 -39 -28 -66.5t-67 -27.5q-38 0 -66 27.5t-28 66.5z" />
<glyph unicode="&#xab;" horiz-adv-x="1069" d="M90 514l330 404l137 -33l-301 -369l301 -375l-137 -35zM496 514l330 404l137 -33l-301 -369l301 -375l-137 -35z" />
<glyph unicode="&#xad;" horiz-adv-x="759" d="M115 481v150h530v-150h-530z" />
<glyph unicode="&#xaf;" horiz-adv-x="892" d="M129 1217v112h635v-112h-635z" />
<glyph unicode="&#xb4;" horiz-adv-x="667" d="M129 1180l248 295l162 -37l-291 -258h-119z" />
<glyph unicode="&#xb6;" horiz-adv-x="1271" d="M80 1006q0 117 57.5 208t158.5 142t230 51h521v-1509h-127v1390h-240v-1390h-127v710q-141 0 -247.5 50.5t-166 140.5t-59.5 207z" />
<glyph unicode="&#xb7;" horiz-adv-x="487" d="M139 559q0 45 31 75t76 30q43 0 73.5 -30t30.5 -75t-30.5 -75.5t-73.5 -30.5q-45 0 -76 30.5t-31 75.5z" />
<glyph unicode="&#xb8;" horiz-adv-x="638" d="M129 -336l39 86q59 -47 133 -47q45 0 73.5 21.5t28.5 56.5q0 31 -20.5 50t-58.5 19q-41 0 -70 -22l-33 35l68 160h106l-49 -117q8 2 23 2q61 0 101 -38t40 -97q0 -74 -57.5 -120t-143.5 -46q-51 0 -99 16.5t-81 40.5z" />
<glyph unicode="&#xbb;" horiz-adv-x="1069" d="M106 141l301 375l-301 369l137 33l330 -404l-330 -408zM512 141l301 375l-301 369l137 33l330 -404l-330 -408z" />
<glyph unicode="&#xbf;" horiz-adv-x="1038" d="M90 2q0 90 52.5 172t145.5 142.5t212 84.5v263h162v-383q-119 -10 -212.5 -47t-145.5 -94.5t-52 -123.5q0 -63 33.5 -119.5t97 -90t145.5 -33.5q106 0 190.5 51t160.5 143l104 -104q-188 -236 -463 -236q-127 0 -225 49.5t-151.5 135.5t-53.5 190zM471 971q0 47 32 79.5 t77 32.5q47 0 79.5 -32.5t32.5 -79.5q0 -43 -32.5 -76t-79.5 -33q-45 0 -77 33t-32 76z" />
<glyph unicode="&#xc0;" horiz-adv-x="1546" d="M66 0l620 1407h174l621 -1407h-174l-142 319h-784l-141 -319h-174zM426 1786l162 37l248 -295h-119zM446 471h654l-326 739z" />
<glyph unicode="&#xc1;" horiz-adv-x="1546" d="M66 0l620 1407h174l621 -1407h-174l-142 319h-784l-141 -319h-174zM446 471h654l-326 739zM711 1528l248 295l162 -37l-291 -258h-119z" />
<glyph unicode="&#xc2;" horiz-adv-x="1546" d="M66 0l620 1407h174l621 -1407h-174l-142 319h-784l-141 -319h-174zM446 471h654l-326 739zM496 1528l205 280h143l209 -280h-119l-161 176l-160 -176h-117z" />
<glyph unicode="&#xc3;" horiz-adv-x="1546" d="M66 0l620 1407h174l621 -1407h-174l-142 319h-784l-141 -319h-174zM442 1536q33 244 197 244q43 0 74.5 -18.5t82.5 -57.5q35 -31 57.5 -45.5t49.5 -14.5q41 0 65.5 33t36.5 107l95 -15q-33 -244 -197 -243q-43 0 -75 18t-83 57q-35 31 -57.5 45.5t-48.5 14.5 q-41 0 -65.5 -33t-37.5 -106zM446 471h654l-326 739z" />
<glyph unicode="&#xc4;" horiz-adv-x="1546" d="M66 0l620 1407h174l621 -1407h-174l-142 319h-784l-141 -319h-174zM446 471h654l-326 739zM481 1665q0 37 27.5 65.5t66.5 28.5t66.5 -28.5t27.5 -65.5q0 -39 -27.5 -66.5t-66.5 -27.5t-66.5 27.5t-27.5 66.5zM874 1665q0 37 28 65.5t66 28.5q39 0 67 -28.5t28 -65.5 q0 -39 -28 -66.5t-67 -27.5q-38 0 -66 27.5t-28 66.5z" />
<glyph unicode="&#xc5;" horiz-adv-x="1546" d="M66 0l620 1407h174l621 -1407h-174l-142 319h-784l-141 -319h-174zM446 471h654l-326 739zM561 1765q0 88 61.5 149.5t149.5 61.5t149.5 -61.5t61.5 -149.5t-61.5 -149.5t-149.5 -61.5t-149.5 61.5t-61.5 149.5zM651 1765q0 -49 36 -85t85 -36t85 36t36 85t-36 85t-85 36 t-85 -36t-36 -85z" />
<glyph unicode="&#xc6;" horiz-adv-x="2097" d="M66 0l811 1407h1108v-152h-848v-462h764v-152h-764v-489h848v-152h-1010v319h-541l-184 -319h-184zM522 471h453v784z" />
<glyph unicode="&#xc7;" horiz-adv-x="1392" d="M106 705q0 195 98.5 361.5t265.5 266t357 99.5q143 0 274.5 -56.5t231.5 -158.5l-108 -111q-78 84 -181.5 131t-216.5 47q-150 0 -277.5 -79t-204.5 -213t-77 -287q0 -156 77 -289t205 -213t277 -80q113 0 216.5 47t181.5 131l108 -111q-94 -94 -216 -150t-255 -65 l-28 -69q8 2 22 2q61 0 101 -38t40 -97q0 -74 -57 -120t-143 -46q-51 0 -99.5 16.5t-81.5 40.5l39 86q59 -47 133 -47q45 0 74 21.5t29 56.5q0 31 -20.5 50t-59.5 19q-41 0 -70 -22l-32 35l49 117q-176 18 -325.5 120.5t-238 262t-88.5 342.5z" />
<glyph unicode="&#xc8;" horiz-adv-x="1284" d="M162 0v1407h1009v-152h-847v-462h763v-152h-763v-489h847v-152h-1009zM401 1786l162 37l248 -295h-119z" />
<glyph unicode="&#xc9;" horiz-adv-x="1284" d="M162 0v1407h1009v-152h-847v-462h763v-152h-763v-489h847v-152h-1009zM504 1528l248 295l162 -37l-291 -258h-119z" />
<glyph unicode="&#xca;" horiz-adv-x="1284" d="M162 0v1407h1009v-152h-847v-462h763v-152h-763v-489h847v-152h-1009zM391 1528l205 280h143l209 -280h-119l-161 176l-160 -176h-117z" />
<glyph unicode="&#xcb;" horiz-adv-x="1284" d="M162 0v1407h1009v-152h-847v-462h763v-152h-763v-489h847v-152h-1009zM377 1665q0 37 27.5 65.5t66.5 28.5t66.5 -28.5t27.5 -65.5q0 -39 -27.5 -66.5t-66.5 -27.5t-66.5 27.5t-27.5 66.5zM770 1665q0 37 28 65.5t66 28.5q39 0 67 -28.5t28 -65.5q0 -39 -28 -66.5 t-67 -27.5q-38 0 -66 27.5t-28 66.5z" />
<glyph unicode="&#xcc;" horiz-adv-x="483" d="M-107 1786l162 37l248 -295h-119zM162 0v1407h160v-1407h-160z" />
<glyph unicode="&#xcd;" horiz-adv-x="483" d="M162 0v1407h160v-1407h-160zM180 1528l248 295l162 -37l-291 -258h-119z" />
<glyph unicode="&#xce;" horiz-adv-x="483" d="M-35 1528l205 280h143l209 -280h-119l-161 176l-160 -176h-117zM162 0v1407h160v-1407h-160z" />
<glyph unicode="&#xcf;" horiz-adv-x="483" d="M-49 1665q0 37 27.5 65.5t66.5 28.5t66.5 -28.5t27.5 -65.5q0 -39 -27.5 -66.5t-66.5 -27.5t-66.5 27.5t-27.5 66.5zM162 0v1407h160v-1407h-160zM344 1665q0 37 28 65.5t66 28.5q39 0 67 -28.5t28 -65.5q0 -39 -28 -66.5t-67 -27.5q-38 0 -66 27.5t-28 66.5z" />
<glyph unicode="&#xd0;" horiz-adv-x="1595" d="M86 641v152h141v614h475q222 0 395 -90t270 -250t97 -362q0 -203 -97 -364t-270 -251t-395 -90h-475v641h-141zM387 145h315q175 0 311 72t213 199t77 289t-77 287.5t-213 197.5t-311 72h-315v-469h414l-2 -152h-412v-496z" />
<glyph unicode="&#xd1;" horiz-adv-x="1576" d="M193 0v1407h159l873 -1145v1145h159v-1407h-159l-873 1145v-1145h-159zM459 1536q33 244 197 244q43 0 74.5 -18.5t82.5 -57.5q35 -31 57.5 -45.5t49.5 -14.5q41 0 65.5 33t36.5 107l95 -15q-33 -244 -197 -243q-43 0 -75 18t-83 57q-35 31 -57.5 45.5t-48.5 14.5 q-41 0 -65.5 -33t-37.5 -106z" />
<glyph unicode="&#xd2;" horiz-adv-x="1652" d="M106 705q0 195 98.5 361.5t265.5 266t357 99.5q193 0 358 -99.5t263 -266.5t98 -361q0 -195 -98 -363t-263 -267.5t-358 -99.5q-190 0 -357 99.5t-265.5 267.5t-98.5 363zM268 705q0 -156 77 -289t205 -213t277 -80q150 0 278 80t203.5 213t75.5 289q0 154 -75.5 287.5 t-203.5 212.5t-278 79t-277.5 -79t-204.5 -213t-77 -287zM483 1786l162 37l248 -295h-119z" />
<glyph unicode="&#xd3;" horiz-adv-x="1652" d="M106 705q0 195 98.5 361.5t265.5 266t357 99.5q193 0 358 -99.5t263 -266.5t98 -361q0 -195 -98 -363t-263 -267.5t-358 -99.5q-190 0 -357 99.5t-265.5 267.5t-98.5 363zM268 705q0 -156 77 -289t205 -213t277 -80q150 0 278 80t203.5 213t75.5 289q0 154 -75.5 287.5 t-203.5 212.5t-278 79t-277.5 -79t-204.5 -213t-77 -287zM766 1528l248 295l162 -37l-291 -258h-119z" />
<glyph unicode="&#xd4;" horiz-adv-x="1652" d="M106 705q0 195 98.5 361.5t265.5 266t357 99.5q193 0 358 -99.5t263 -266.5t98 -361q0 -195 -98 -363t-263 -267.5t-358 -99.5q-190 0 -357 99.5t-265.5 267.5t-98.5 363zM268 705q0 -156 77 -289t205 -213t277 -80q150 0 278 80t203.5 213t75.5 289q0 154 -75.5 287.5 t-203.5 212.5t-278 79t-277.5 -79t-204.5 -213t-77 -287zM551 1528l205 280h143l209 -280h-119l-161 176l-160 -176h-117z" />
<glyph unicode="&#xd5;" horiz-adv-x="1652" d="M106 705q0 195 98.5 361.5t265.5 266t357 99.5q193 0 358 -99.5t263 -266.5t98 -361q0 -195 -98 -363t-263 -267.5t-358 -99.5q-190 0 -357 99.5t-265.5 267.5t-98.5 363zM268 705q0 -156 77 -289t205 -213t277 -80q150 0 278 80t203.5 213t75.5 289q0 154 -75.5 287.5 t-203.5 212.5t-278 79t-277.5 -79t-204.5 -213t-77 -287zM498 1536q33 244 197 244q43 0 74.5 -18.5t82.5 -57.5q35 -31 57.5 -45.5t49.5 -14.5q41 0 65.5 33t36.5 107l95 -15q-33 -244 -197 -243q-43 0 -75 18t-83 57q-35 31 -57.5 45.5t-48.5 14.5q-41 0 -65.5 -33 t-37.5 -106z" />
<glyph unicode="&#xd6;" horiz-adv-x="1652" d="M106 705q0 195 98.5 361.5t265.5 266t357 99.5q193 0 358 -99.5t263 -266.5t98 -361q0 -195 -98 -363t-263 -267.5t-358 -99.5q-190 0 -357 99.5t-265.5 267.5t-98.5 363zM268 705q0 -156 77 -289t205 -213t277 -80q150 0 278 80t203.5 213t75.5 289q0 154 -75.5 287.5 t-203.5 212.5t-278 79t-277.5 -79t-204.5 -213t-77 -287zM537 1665q0 37 27.5 65.5t66.5 28.5t66.5 -28.5t27.5 -65.5q0 -39 -27.5 -66.5t-66.5 -27.5t-66.5 27.5t-27.5 66.5zM930 1665q0 37 28 65.5t66 28.5q39 0 67 -28.5t28 -65.5q0 -39 -28 -66.5t-67 -27.5 q-38 0 -66 27.5t-28 66.5z" />
<glyph unicode="&#xd7;" horiz-adv-x="1107" d="M168 406l278 278l-278 279l108 108l279 -278l279 278l106 -108l-276 -277l276 -278l-109 -109l-276 279l-279 -279z" />
<glyph unicode="&#xd8;" horiz-adv-x="1652" d="M106 705q0 195 98.5 361.5t265.5 266t357 99.5q117 0 225.5 -37t198.5 -107l105 119h174l-180 -207q92 -100 144 -228t52 -267q0 -195 -98 -363t-263 -267.5t-358 -99.5q-115 0 -223 37t-201 107l-104 -119h-174l180 207q-94 100 -146.5 228t-52.5 270zM268 705 q0 -107 37 -205.5t103 -175.5l743 850q-145 111 -324 110q-150 0 -277.5 -79t-204.5 -213t-77 -287zM504 233q145 -111 323 -110q150 0 278 80t203.5 213t75.5 289q0 104 -36.5 202.5t-102.5 175.5z" />
<glyph unicode="&#xd9;" horiz-adv-x="1527" d="M176 584v823h160v-823q0 -133 55 -238.5t152.5 -165t220.5 -59.5t220 59.5t152.5 165t55.5 238.5v823h160v-823q0 -176 -75 -314.5t-209 -216.5t-304 -78t-304 78t-209 216.5t-75 314.5zM498 1786l162 37l248 -295h-119z" />
<glyph unicode="&#xda;" horiz-adv-x="1527" d="M176 584v823h160v-823q0 -133 55 -238.5t152.5 -165t220.5 -59.5t220 59.5t152.5 165t55.5 238.5v823h160v-823q0 -176 -75 -314.5t-209 -216.5t-304 -78t-304 78t-209 216.5t-75 314.5zM600 1528l248 295l162 -37l-291 -258h-119z" />
<glyph unicode="&#xdb;" horiz-adv-x="1527" d="M176 584v823h160v-823q0 -133 55 -238.5t152.5 -165t220.5 -59.5t220 59.5t152.5 165t55.5 238.5v823h160v-823q0 -176 -75 -314.5t-209 -216.5t-304 -78t-304 78t-209 216.5t-75 314.5zM487 1528l205 280h143l209 -280h-119l-161 176l-160 -176h-117z" />
<glyph unicode="&#xdc;" horiz-adv-x="1527" d="M176 584v823h160v-823q0 -133 55 -238.5t152.5 -165t220.5 -59.5t220 59.5t152.5 165t55.5 238.5v823h160v-823q0 -176 -75 -314.5t-209 -216.5t-304 -78t-304 78t-209 216.5t-75 314.5zM473 1665q0 37 27.5 65.5t66.5 28.5t66.5 -28.5t27.5 -65.5q0 -39 -27.5 -66.5 t-66.5 -27.5t-66.5 27.5t-27.5 66.5zM866 1665q0 37 28 65.5t66 28.5q39 0 67 -28.5t28 -65.5q0 -39 -28 -66.5t-67 -27.5q-38 0 -66 27.5t-28 66.5z" />
<glyph unicode="&#xdd;" horiz-adv-x="1374" d="M37 1407h199l452 -682l457 682h192l-565 -834v-573h-168v573zM524 1528l248 295l162 -37l-291 -258h-119z" />
<glyph unicode="&#xde;" horiz-adv-x="1318" d="M162 0v1407h164v-248h407q143 0 262 -57.5t187.5 -160.5t68.5 -232t-68.5 -232.5t-187 -161t-262.5 -57.5h-411v-258h-160zM322 410h383q174 0 279.5 79.5t105.5 219.5q0 139 -105.5 219t-279.5 80h-383v-598z" />
<glyph unicode="&#xdf;" horiz-adv-x="1179" d="M172 0v1077q0 106 55.5 191.5t152.5 132.5t220 47t220.5 -47t151.5 -132t54 -192q0 -213 -201 -329q123 -61 189.5 -154.5t66.5 -208.5q0 -111 -53 -199t-148.5 -137t-215.5 -49h-179v145h138q131 0 214 73t83 188t-83 187.5t-214 72.5h-138v145h113q76 0 136.5 34t95 90 t34.5 122q0 109 -74.5 177.5t-191.5 68.5t-191.5 -71t-74.5 -181v-1051h-160z" />
<glyph unicode="&#xe0;" horiz-adv-x="1173" d="M102 313q0 102 56.5 183.5t152 125.5t207.5 44q160 0 344 -60v39q0 129 -65.5 218t-221.5 89q-72 0 -146.5 -25.5t-162.5 -70.5l-61 125q205 102 381 102q211 0 320.5 -119.5t109.5 -318.5v-645h-154v166q-55 -90 -158.5 -140.5t-214.5 -50.5q-170 0 -278.5 92.5 t-108.5 245.5zM252 319q0 -96 74.5 -152t189.5 -56t216.5 58t129.5 163v162q-156 43 -319 43q-121 0 -206 -61.5t-85 -156.5zM334 1438l162 37l248 -295h-119z" />
<glyph unicode="&#xe1;" horiz-adv-x="1173" d="M102 313q0 102 56.5 183.5t152 125.5t207.5 44q160 0 344 -60v39q0 129 -65.5 218t-221.5 89q-72 0 -146.5 -25.5t-162.5 -70.5l-61 125q205 102 381 102q211 0 320.5 -119.5t109.5 -318.5v-645h-154v166q-55 -90 -158.5 -140.5t-214.5 -50.5q-170 0 -278.5 92.5 t-108.5 245.5zM252 319q0 -96 74.5 -152t189.5 -56t216.5 58t129.5 163v162q-156 43 -319 43q-121 0 -206 -61.5t-85 -156.5zM436 1180l248 295l162 -37l-291 -258h-119z" />
<glyph unicode="&#xe2;" horiz-adv-x="1173" d="M102 313q0 102 56.5 183.5t152 125.5t207.5 44q160 0 344 -60v39q0 129 -65.5 218t-221.5 89q-72 0 -146.5 -25.5t-162.5 -70.5l-61 125q205 102 381 102q211 0 320.5 -119.5t109.5 -318.5v-645h-154v166q-55 -90 -158.5 -140.5t-214.5 -50.5q-170 0 -278.5 92.5 t-108.5 245.5zM252 319q0 -96 74.5 -152t189.5 -56t216.5 58t129.5 163v162q-156 43 -319 43q-121 0 -206 -61.5t-85 -156.5zM324 1180l205 280h143l209 -280h-119l-161 176l-160 -176h-117z" />
<glyph unicode="&#xe3;" horiz-adv-x="1173" d="M102 313q0 102 56.5 183.5t152 125.5t207.5 44q160 0 344 -60v39q0 129 -65.5 218t-221.5 89q-72 0 -146.5 -25.5t-162.5 -70.5l-61 125q205 102 381 102q211 0 320.5 -119.5t109.5 -318.5v-645h-154v166q-55 -90 -158.5 -140.5t-214.5 -50.5q-170 0 -278.5 92.5 t-108.5 245.5zM252 319q0 -96 74.5 -152t189.5 -56t216.5 58t129.5 163v162q-156 43 -319 43q-121 0 -206 -61.5t-85 -156.5zM270 1188q33 244 197 244q43 0 74.5 -18.5t82.5 -57.5q35 -31 57.5 -45.5t49.5 -14.5q41 0 65.5 33t36.5 107l95 -15q-33 -244 -197 -243 q-43 0 -75 18t-83 57q-35 31 -57.5 45.5t-48.5 14.5q-41 0 -65.5 -33t-37.5 -106z" />
<glyph unicode="&#xe4;" horiz-adv-x="1173" d="M102 313q0 102 56.5 183.5t152 125.5t207.5 44q160 0 344 -60v39q0 129 -65.5 218t-221.5 89q-72 0 -146.5 -25.5t-162.5 -70.5l-61 125q205 102 381 102q211 0 320.5 -119.5t109.5 -318.5v-645h-154v166q-55 -90 -158.5 -140.5t-214.5 -50.5q-170 0 -278.5 92.5 t-108.5 245.5zM252 319q0 -96 74.5 -152t189.5 -56t216.5 58t129.5 163v162q-156 43 -319 43q-121 0 -206 -61.5t-85 -156.5zM309 1317q0 37 27.5 65.5t66.5 28.5t66.5 -28.5t27.5 -65.5q0 -39 -27.5 -66.5t-66.5 -27.5t-66.5 27.5t-27.5 66.5zM702 1317q0 37 28 65.5 t66 28.5q39 0 67 -28.5t28 -65.5q0 -39 -28 -66.5t-67 -27.5q-38 0 -66 27.5t-28 66.5z" />
<glyph unicode="&#xe5;" horiz-adv-x="1173" d="M102 313q0 102 56.5 183.5t152 125.5t207.5 44q160 0 344 -60v39q0 129 -65.5 218t-221.5 89q-72 0 -146.5 -25.5t-162.5 -70.5l-61 125q205 102 381 102q211 0 320.5 -119.5t109.5 -318.5v-645h-154v166q-55 -90 -158.5 -140.5t-214.5 -50.5q-170 0 -278.5 92.5 t-108.5 245.5zM252 319q0 -96 74.5 -152t189.5 -56t216.5 58t129.5 163v162q-156 43 -319 43q-121 0 -206 -61.5t-85 -156.5zM389 1417q0 88 61.5 149.5t149.5 61.5t149.5 -61.5t61.5 -149.5t-61.5 -149.5t-149.5 -61.5t-149.5 61.5t-61.5 149.5zM479 1417q0 -49 36 -85 t85 -36t85 36t36 85t-36 85t-85 36t-85 -36t-36 -85z" />
<glyph unicode="&#xe6;" horiz-adv-x="1982" d="M102 313q0 102 56.5 183.5t152 125.5t207.5 44q160 0 344 -60v39q0 129 -65.5 218t-221.5 89q-72 0 -146.5 -25.5t-162.5 -70.5l-61 125q205 102 381 102q141 0 238.5 -56t144.5 -157q74 100 182.5 156.5t232.5 56.5q238 0 370 -165.5t132 -446.5h-866 q16 -158 119.5 -258t257.5 -100q94 0 189 36.5t145 90.5l94 -101q-68 -74 -190 -119t-236 -45q-133 0 -252 64.5t-193 179.5q-68 -111 -186.5 -177.5t-257.5 -66.5q-193 0 -300.5 89.5t-107.5 248.5zM252 319q0 -98 75.5 -153t209.5 -55q86 0 160.5 42t119.5 111.5t45 151.5 v78q-156 43 -319 43q-121 0 -206 -61.5t-85 -156.5zM1022 608h713q-16 152 -104.5 245t-239.5 93q-144 0 -246.5 -93t-122.5 -245z" />
<glyph unicode="&#xe7;" horiz-adv-x="1110" d="M98 530q0 147 75 274.5t202 203t272 75.5q106 0 203.5 -41t173.5 -114l-106 -105q-53 57 -123 90t-148 33q-104 0 -193 -56t-141.5 -152.5t-52.5 -207.5q0 -113 52.5 -208t141.5 -152t193 -57q78 0 149.5 33.5t127.5 95.5l106 -105q-70 -70 -159 -111.5t-187 -48.5 l-31 -71q8 2 23 2q61 0 101 -38t40 -97q0 -74 -57.5 -120t-143.5 -46q-51 0 -99 16.5t-81 40.5l39 86q59 -47 133 -47q45 0 74 21.5t29 56.5q0 31 -20.5 50t-59.5 19q-41 0 -70 -22l-33 35l50 117q-131 18 -242 97t-174.5 198.5t-63.5 254.5z" />
<glyph unicode="&#xe8;" horiz-adv-x="1218" d="M98 532q0 154 71 281t190.5 198.5t261.5 71.5q238 0 369.5 -165.5t131.5 -446.5h-866q16 -158 119.5 -258t257.5 -100q94 0 189.5 36.5t144.5 90.5l94 -101q-68 -74 -189.5 -119t-236.5 -45q-141 0 -264 72t-198 200t-75 285zM258 608h713q-16 152 -104.5 245t-239.5 93 q-144 0 -246 -93t-123 -245zM354 1438l162 37l248 -295h-119z" />
<glyph unicode="&#xe9;" horiz-adv-x="1218" d="M98 532q0 154 71 281t190.5 198.5t261.5 71.5q238 0 369.5 -165.5t131.5 -446.5h-866q16 -158 119.5 -258t257.5 -100q94 0 189.5 36.5t144.5 90.5l94 -101q-68 -74 -189.5 -119t-236.5 -45q-141 0 -264 72t-198 200t-75 285zM258 608h713q-16 152 -104.5 245t-239.5 93 q-144 0 -246 -93t-123 -245zM457 1180l248 295l162 -37l-291 -258h-119z" />
<glyph unicode="&#xea;" horiz-adv-x="1218" d="M98 532q0 154 71 281t190.5 198.5t261.5 71.5q238 0 369.5 -165.5t131.5 -446.5h-866q16 -158 119.5 -258t257.5 -100q94 0 189.5 36.5t144.5 90.5l94 -101q-68 -74 -189.5 -119t-236.5 -45q-141 0 -264 72t-198 200t-75 285zM258 608h713q-16 152 -104.5 245t-239.5 93 q-144 0 -246 -93t-123 -245zM344 1180l205 280h143l209 -280h-119l-161 176l-160 -176h-117z" />
<glyph unicode="&#xeb;" horiz-adv-x="1218" d="M98 532q0 154 71 281t190.5 198.5t261.5 71.5q238 0 369.5 -165.5t131.5 -446.5h-866q16 -158 119.5 -258t257.5 -100q94 0 189.5 36.5t144.5 90.5l94 -101q-68 -74 -189.5 -119t-236.5 -45q-141 0 -264 72t-198 200t-75 285zM258 608h713q-16 152 -104.5 245t-239.5 93 q-144 0 -246 -93t-123 -245zM330 1317q0 37 27.5 65.5t66.5 28.5t66.5 -28.5t27.5 -65.5q0 -39 -27.5 -66.5t-66.5 -27.5t-66.5 27.5t-27.5 66.5zM723 1317q0 37 28 65.5t66 28.5q39 0 67 -28.5t28 -65.5q0 -39 -28 -66.5t-67 -27.5q-38 0 -66 27.5t-28 66.5z" />
<glyph unicode="&#xec;" horiz-adv-x="460" d="M-117 1438l162 37l248 -295h-119zM154 0v1059h153v-1059h-153z" />
<glyph unicode="&#xed;" horiz-adv-x="460" d="M154 0v1059h153v-1059h-153zM170 1180l248 295l162 -37l-291 -258h-119z" />
<glyph unicode="&#xee;" horiz-adv-x="460" d="M-45 1180l205 280h143l209 -280h-119l-161 176l-160 -176h-117zM154 0v1059h153v-1059h-153z" />
<glyph unicode="&#xef;" horiz-adv-x="460" d="M-59 1317q0 37 27.5 65.5t66.5 28.5t66.5 -28.5t27.5 -65.5q0 -39 -27.5 -66.5t-66.5 -27.5t-66.5 27.5t-27.5 66.5zM154 0v1059h153v-1059h-153zM334 1317q0 37 28 65.5t66 28.5q39 0 67 -28.5t28 -65.5q0 -39 -28 -66.5t-67 -27.5q-38 0 -66 27.5t-28 66.5z" />
<glyph unicode="&#xf0;" horiz-adv-x="1284" d="M123 508q0 147 61.5 264t170 182.5t245.5 65.5q203 0 342 -166q-84 164 -276 332l-250 -111l-56 127l187 82q-111 82 -166 119l156 63q84 -63 149 -118l203 90l55 -127l-145 -66q184 -172 273 -336t89 -358q0 -168 -65.5 -298t-183 -204t-267.5 -74q-152 0 -270.5 69 t-185 189.5t-66.5 274.5zM283 506q0 -113 46 -202t129 -139t187 -50q103 0 183.5 49t125.5 137t45 201q0 106 -44 193t-125.5 138.5t-190.5 51.5q-102 0 -184 -48.5t-127 -135.5t-45 -195z" />
<glyph unicode="&#xf1;" d="M158 0v1059h153v-170q47 86 142.5 140t205.5 54q115 0 206 -52t141.5 -145t50.5 -212v-674h-154v653q0 129 -73.5 211t-190.5 82q-88 0 -163 -37t-120 -100.5t-45 -134.5v-674h-153zM311 1188q33 244 197 244q43 0 74.5 -18.5t82.5 -57.5q35 -31 57.5 -45.5t49.5 -14.5 q41 0 65.5 33t36.5 107l95 -15q-33 -244 -197 -243q-43 0 -75 18t-83 57q-35 31 -57.5 45.5t-48.5 14.5q-41 0 -65.5 -33t-37.5 -106z" />
<glyph unicode="&#xf2;" horiz-adv-x="1292" d="M98 530q0 147 75 274.5t202 203t272 75.5t271 -75.5t201 -202.5t75 -275q0 -147 -75 -275t-200.5 -204t-271.5 -76q-145 0 -272 76t-202 204t-75 275zM260 530q0 -113 52.5 -208t141.5 -152t193 -57q103 0 192 57t141 152.5t52 207.5q0 111 -52 207.5t-141 152.5t-192 56 q-104 0 -193 -56t-141.5 -152.5t-52.5 -207.5zM381 1438l162 37l248 -295h-119z" />
<glyph unicode="&#xf3;" horiz-adv-x="1292" d="M98 530q0 147 75 274.5t202 203t272 75.5t271 -75.5t201 -202.5t75 -275q0 -147 -75 -275t-200.5 -204t-271.5 -76q-145 0 -272 76t-202 204t-75 275zM260 530q0 -113 52.5 -208t141.5 -152t193 -57q103 0 192 57t141 152.5t52 207.5q0 111 -52 207.5t-141 152.5t-192 56 q-104 0 -193 -56t-141.5 -152.5t-52.5 -207.5zM483 1180l248 295l162 -37l-291 -258h-119z" />
<glyph unicode="&#xf4;" horiz-adv-x="1292" d="M98 530q0 147 75 274.5t202 203t272 75.5t271 -75.5t201 -202.5t75 -275q0 -147 -75 -275t-200.5 -204t-271.5 -76q-145 0 -272 76t-202 204t-75 275zM260 530q0 -113 52.5 -208t141.5 -152t193 -57q103 0 192 57t141 152.5t52 207.5q0 111 -52 207.5t-141 152.5t-192 56 q-104 0 -193 -56t-141.5 -152.5t-52.5 -207.5zM371 1180l205 280h143l209 -280h-119l-161 176l-160 -176h-117z" />
<glyph unicode="&#xf5;" horiz-adv-x="1292" d="M98 530q0 147 75 274.5t202 203t272 75.5t271 -75.5t201 -202.5t75 -275q0 -147 -75 -275t-200.5 -204t-271.5 -76q-145 0 -272 76t-202 204t-75 275zM260 530q0 -113 52.5 -208t141.5 -152t193 -57q103 0 192 57t141 152.5t52 207.5q0 111 -52 207.5t-141 152.5t-192 56 q-104 0 -193 -56t-141.5 -152.5t-52.5 -207.5zM317 1188q33 244 197 244q43 0 74.5 -18.5t82.5 -57.5q35 -31 57.5 -45.5t49.5 -14.5q41 0 65.5 33t36.5 107l95 -15q-33 -244 -197 -243q-43 0 -75 18t-83 57q-35 31 -57.5 45.5t-48.5 14.5q-41 0 -65.5 -33t-37.5 -106z" />
<glyph unicode="&#xf6;" horiz-adv-x="1292" d="M98 530q0 147 75 274.5t202 203t272 75.5t271 -75.5t201 -202.5t75 -275q0 -147 -75 -275t-200.5 -204t-271.5 -76q-145 0 -272 76t-202 204t-75 275zM260 530q0 -113 52.5 -208t141.5 -152t193 -57q103 0 192 57t141 152.5t52 207.5q0 111 -52 207.5t-141 152.5t-192 56 q-104 0 -193 -56t-141.5 -152.5t-52.5 -207.5zM356 1317q0 37 27.5 65.5t66.5 28.5t66.5 -28.5t27.5 -65.5q0 -39 -27.5 -66.5t-66.5 -27.5t-66.5 27.5t-27.5 66.5zM749 1317q0 37 28 65.5t66 28.5q39 0 67 -28.5t28 -65.5q0 -39 -28 -66.5t-67 -27.5q-38 0 -66 27.5 t-28 66.5z" />
<glyph unicode="&#xf7;" horiz-adv-x="1214" d="M137 608v152h940v-152h-940zM498 354q0 43 32.5 76t79.5 33q45 0 77 -33t32 -76q0 -47 -32 -79.5t-77 -32.5q-47 0 -79.5 32.5t-32.5 79.5zM498 1018q0 43 32.5 75.5t79.5 32.5q45 0 77 -32.5t32 -75.5q0 -47 -32 -80t-77 -33q-47 0 -79.5 33t-32.5 80z" />
<glyph unicode="&#xf8;" horiz-adv-x="1292" d="M98 530q0 147 75 274.5t202 203t272 75.5q162 0 305 -96l62 72h174l-137 -160q67 -76 105 -170t38 -199q0 -147 -75 -275t-200.5 -204t-271.5 -76q-164 0 -303 95l-59 -70h-174l135 158q-70 74 -109 171t-39 201zM260 530q0 -145 84 -256l514 603q-100 70 -211 69 q-104 0 -193 -56t-141.5 -152.5t-52.5 -207.5zM438 180q96 -68 209 -67q103 0 192 57t141 152.5t52 207.5q0 135 -80 252z" />
<glyph unicode="&#xf9;" d="M156 385v674h153v-653q0 -129 74 -211t190 -82q88 0 163 36.5t120 100t45 135.5v674h154v-1059h-154v170q-47 -86 -142 -140.5t-206 -54.5q-115 0 -206 52.5t-141 145.5t-50 212zM338 1438l162 37l248 -295h-119z" />
<glyph unicode="&#xfa;" d="M156 385v674h153v-653q0 -129 74 -211t190 -82q88 0 163 36.5t120 100t45 135.5v674h154v-1059h-154v170q-47 -86 -142 -140.5t-206 -54.5q-115 0 -206 52.5t-141 145.5t-50 212zM440 1180l248 295l162 -37l-291 -258h-119z" />
<glyph unicode="&#xfb;" d="M156 385v674h153v-653q0 -129 74 -211t190 -82q88 0 163 36.5t120 100t45 135.5v674h154v-1059h-154v170q-47 -86 -142 -140.5t-206 -54.5q-115 0 -206 52.5t-141 145.5t-50 212zM328 1180l205 280h143l209 -280h-119l-161 176l-160 -176h-117z" />
<glyph unicode="&#xfc;" d="M156 385v674h153v-653q0 -129 74 -211t190 -82q88 0 163 36.5t120 100t45 135.5v674h154v-1059h-154v170q-47 -86 -142 -140.5t-206 -54.5q-115 0 -206 52.5t-141 145.5t-50 212zM313 1317q0 37 27.5 65.5t66.5 28.5t66.5 -28.5t27.5 -65.5q0 -39 -27.5 -66.5 t-66.5 -27.5t-66.5 27.5t-27.5 66.5zM706 1317q0 37 28 65.5t66 28.5q39 0 67 -28.5t28 -65.5q0 -39 -28 -66.5t-67 -27.5q-38 0 -66 27.5t-28 66.5z" />
<glyph unicode="&#xfd;" horiz-adv-x="1214" d="M61 1059h170l371 -881l350 881h166l-483 -1178q-53 -131 -131 -189.5t-191 -60.5q-92 0 -168 35l37 131q53 -27 125 -26q53 0 88 20.5t66 73.5l61 131zM438 1180l248 295l162 -37l-291 -258h-119z" />
<glyph unicode="&#xfe;" horiz-adv-x="1306" d="M170 -352v1784h154v-572q61 106 160.5 164.5t224.5 58.5q137 0 248.5 -70.5t175 -196.5t63.5 -286t-63.5 -286.5t-175 -197.5t-248.5 -71q-125 0 -224.5 58.5t-160.5 165.5v-551h-154zM324 530q0 -121 45 -216t127 -148t184 -53t183 53t126 148.5t45 215.5 q0 121 -45 215.5t-126 147.5t-183 53t-184 -53t-127 -147.5t-45 -215.5z" />
<glyph unicode="&#xff;" horiz-adv-x="1214" d="M61 1059h170l371 -881l350 881h166l-483 -1178q-53 -131 -131 -189.5t-191 -60.5q-92 0 -168 35l37 131q53 -27 125 -26q53 0 88 20.5t66 73.5l61 131zM311 1317q0 37 27.5 65.5t66.5 28.5t66.5 -28.5t27.5 -65.5q0 -39 -27.5 -66.5t-66.5 -27.5t-66.5 27.5t-27.5 66.5z M704 1317q0 37 28 65.5t66 28.5q39 0 67 -28.5t28 -65.5q0 -39 -28 -66.5t-67 -27.5q-38 0 -66 27.5t-28 66.5z" />
<glyph unicode="&#x152;" horiz-adv-x="2113" d="M106 684q0 195 98.5 360.5t264.5 264t358 98.5h1174v-152h-848v-462h764v-152h-764v-489h848v-152h-1174q-193 0 -358.5 89t-264 246t-98.5 349zM268 684q0 -154 76 -276.5t204 -191.5t279 -69h164v1113h-164q-150 0 -277.5 -79t-204.5 -211t-77 -286z" />
<glyph unicode="&#x153;" horiz-adv-x="2154" d="M98 530q0 147 75 274.5t202 203t272 75.5q141 0 264 -71.5t199 -190.5q70 121 188.5 191.5t257.5 70.5q238 0 370 -165.5t132 -446.5h-866q16 -158 119.5 -258t257.5 -100q94 0 189 36.5t145 90.5l94 -101q-68 -74 -189.5 -119t-236.5 -45q-141 0 -264 72t-195 195 q-76 -121 -200 -194t-265 -73q-145 0 -272 76t-202 204t-75 275zM260 530q0 -113 52.5 -208t141.5 -152t193 -57q103 0 192 57t141 152.5t52 207.5q0 111 -52 207.5t-141 152.5t-192 56q-104 0 -193 -56t-141.5 -152.5t-52.5 -207.5zM1194 608h713q-16 152 -104.5 245 t-239.5 93q-144 0 -246.5 -93t-122.5 -245z" />
<glyph unicode="&#x178;" horiz-adv-x="1374" d="M37 1407h199l452 -682l457 682h192l-565 -834v-573h-168v573zM397 1665q0 37 27.5 65.5t66.5 28.5t66.5 -28.5t27.5 -65.5q0 -39 -27.5 -66.5t-66.5 -27.5t-66.5 27.5t-27.5 66.5zM790 1665q0 37 28 65.5t66 28.5q39 0 67 -28.5t28 -65.5q0 -39 -28 -66.5t-67 -27.5 q-38 0 -66 27.5t-28 66.5z" />
<glyph unicode="&#x2c6;" horiz-adv-x="815" d="M129 1180l205 280h143l209 -280h-119l-161 176l-160 -176h-117z" />
<glyph unicode="&#x2dc;" horiz-adv-x="923" d="M133 1188q33 244 197 244q43 0 74.5 -18.5t82.5 -57.5q35 -31 57.5 -45.5t49.5 -14.5q41 0 65.5 33t36.5 107l95 -15q-33 -244 -197 -243q-43 0 -75 18t-83 57q-35 31 -57.5 45.5t-48.5 14.5q-41 0 -65.5 -33t-37.5 -106z" />
<glyph unicode="&#x2000;" horiz-adv-x="988" />
<glyph unicode="&#x2001;" horiz-adv-x="1976" />
<glyph unicode="&#x2002;" horiz-adv-x="988" />
<glyph unicode="&#x2003;" horiz-adv-x="1976" />
<glyph unicode="&#x2004;" horiz-adv-x="658" />
<glyph unicode="&#x2005;" horiz-adv-x="494" />
<glyph unicode="&#x2006;" horiz-adv-x="329" />
<glyph unicode="&#x2007;" horiz-adv-x="329" />
<glyph unicode="&#x2008;" horiz-adv-x="247" />
<glyph unicode="&#x2009;" horiz-adv-x="395" />
<glyph unicode="&#x200a;" horiz-adv-x="109" />
<glyph unicode="&#x2010;" horiz-adv-x="759" d="M115 481v150h530v-150h-530z" />
<glyph unicode="&#x2011;" horiz-adv-x="759" d="M115 481v150h530v-150h-530z" />
<glyph unicode="&#x2012;" horiz-adv-x="759" d="M115 481v150h530v-150h-530z" />
<glyph unicode="&#x2013;" horiz-adv-x="1181" d="M115 483v146h952v-146h-952z" />
<glyph unicode="&#x2014;" horiz-adv-x="1806" d="M115 483v146h1577v-146h-1577z" />
<glyph unicode="&#x2018;" horiz-adv-x="540" d="M145 1073q0 61 33 126t125 179l76 -57q-82 -94 -107 -191q45 0 78 -32.5t33 -79.5q0 -43 -32 -76t-81 -33q-57 0 -91 46t-34 118z" />
<glyph unicode="&#x2019;" horiz-adv-x="540" d="M158 1274q0 45 32.5 77t79.5 32q57 0 91 -46.5t34 -117.5q0 -61 -32.5 -126t-124.5 -179l-76 57q82 94 106 190q-45 0 -77.5 33t-32.5 80z" />
<glyph unicode="&#x201c;" horiz-adv-x="950" d="M145 1073q0 61 33 126t125 179l76 -57q-82 -94 -107 -191q45 0 78 -32.5t33 -79.5q0 -43 -32 -76t-81 -33q-57 0 -91 46t-34 118zM555 1073q0 61 33 126t125 179l75 -57q-82 -94 -106 -191q45 0 78 -32.5t33 -79.5q0 -43 -32 -76t-81 -33q-57 0 -91 46t-34 118z" />
<glyph unicode="&#x201d;" horiz-adv-x="950" d="M158 1274q0 45 32.5 77t79.5 32q57 0 91 -46.5t34 -117.5q0 -61 -32.5 -126t-124.5 -179l-76 57q82 94 106 190q-45 0 -77.5 33t-32.5 80zM568 1274q0 45 32.5 77t79.5 32q57 0 91 -46.5t34 -117.5q0 -61 -32.5 -126t-124.5 -179l-76 57q82 94 106 190q-45 0 -77.5 33 t-32.5 80z" />
<glyph unicode="&#x2022;" horiz-adv-x="856" d="M184 610q0 100 73 172t173 72t172 -71.5t72 -172.5q0 -100 -72 -172.5t-172 -72.5t-173 72.5t-73 172.5z" />
<glyph unicode="&#x2026;" horiz-adv-x="1339" d="M150 88q0 43 32.5 76t79.5 33q45 0 77 -33t32 -76q0 -47 -32 -80t-77 -33q-47 0 -79.5 33t-32.5 80zM560 88q0 43 32.5 76t79.5 33q45 0 77 -33t32 -76q0 -47 -32 -80t-77 -33q-47 0 -79.5 33t-32.5 80zM969 88q0 43 32.5 76t79.5 33q45 0 77 -33t32 -76q0 -47 -32 -80 t-77 -33q-47 0 -79.5 33t-32.5 80z" />
<glyph unicode="&#x202f;" horiz-adv-x="395" />
<glyph unicode="&#x2039;" horiz-adv-x="636" d="M78 514l330 404l137 -33l-301 -369l301 -375l-137 -35z" />
<glyph unicode="&#x203a;" horiz-adv-x="636" d="M92 141l301 375l-301 369l137 33l330 -404l-330 -408z" />
<glyph unicode="&#x205f;" horiz-adv-x="494" />
<glyph unicode="&#x20ac;" horiz-adv-x="1392" d="M-49 483v138h160q-4 53 -5 84q0 55 11 120h-166v138h205q53 135 154.5 241.5t235.5 167t281 60.5q143 0 274.5 -56.5t231.5 -158.5l-108 -111q-78 84 -181.5 131t-216.5 47q-158 0 -293 -89t-204 -232h637v-138h-686q-12 -57 -13 -120q0 -43 6 -84h693v-138h-656 q66 -160 207 -260t309 -100q113 0 216.5 47t181.5 131l108 -111q-100 -100 -231 -157.5t-275 -57.5q-154 0 -293 65.5t-242.5 181.5t-150.5 261h-190z" />
<glyph unicode="&#x25fc;" horiz-adv-x="1054" d="M0 0v1055h1055v-1055h-1055z" />
</font>
</defs>
</svg>
