<?xml version="1.0" standalone="no"?>
<!DOCTYPE svg PUBLIC "-//W3C//DTD SVG 1.1//EN" "http://www.w3.org/Graphics/SVG/1.1/DTD/svg11.dtd" >
<svg xmlns="http://www.w3.org/2000/svg" xmlns:xlink="http://www.w3.org/1999/xlink" version="1.1">
<metadata></metadata>
<defs>
<font id="metropolissemi_bold_italic" horiz-adv-x="1241" >
<font-face units-per-em="2048" ascent="1628" descent="-420" />
<missing-glyph horiz-adv-x="579" />
<glyph horiz-adv-x="0" />
<glyph horiz-adv-x="682" />
<glyph unicode=" "  horiz-adv-x="579" />
<glyph unicode="&#x09;" horiz-adv-x="579" />
<glyph unicode="&#xa0;" horiz-adv-x="579" />
<glyph unicode="!" horiz-adv-x="602" d="M61 121q0 74 54.5 125t124.5 51q61 0 101 -41t40 -100q0 -72 -53.5 -126.5t-120.5 -54.5q-66 0 -106 41t-40 105zM197 461l137 946h289l-254 -946h-172z" />
<glyph unicode="&#x22;" horiz-adv-x="987" d="M266 1049l2 65q12 293 183 293q47 0 77.5 -32t30.5 -79q0 -41 -58.5 -190.5t-115.5 -276.5h-111q-8 136 -8 220zM719 1049l2 65q12 293 183 293q47 0 77.5 -32t30.5 -79q0 -41 -58.5 -190.5t-115.5 -276.5h-111q-8 136 -8 220z" />
<glyph unicode="#" horiz-adv-x="1386" d="M29 340l86 184h204l162 355h-209l84 184h211l158 344h197l-158 -344h256l158 344h194l-158 -344h213l-86 -184h-213l-161 -355h213l-86 -184h-213l-156 -340h-195l156 340h-256l-156 -340h-196l155 340h-204zM516 524h256l162 355h-256z" />
<glyph unicode="$" horiz-adv-x="1284" d="M-2 213l174 166q57 -63 137 -108.5t164 -61.5l86 407q-180 51 -264 123t-84 201t64.5 236.5t182 174t269.5 79.5l27 124h186l-27 -131q111 -18 210.5 -68t172.5 -126l-166 -174q-51 55 -121.5 93t-142.5 56l-80 -393q209 -53 298.5 -130t89.5 -212q0 -137 -73 -244.5 t-200 -172t-289 -72.5l-26 -132h-187l29 140q-129 23 -242.5 82t-187.5 143zM471 983q0 -39 33 -67.5t106 -55.5l72 344q-98 -20 -154.5 -80.5t-56.5 -140.5zM659 203q115 16 183.5 79.5t68.5 149.5q0 47 -40 78t-136 59z" />
<glyph unicode="%" horiz-adv-x="1685" d="M150 0l1265 1407h195l-1264 -1407h-196zM188 993q0 113 54.5 211.5t147.5 156.5t204 58q137 0 214 -81t77 -208q0 -113 -54.5 -210t-147.5 -155t-204 -58q-135 0 -213 79.5t-78 206.5zM360 991q0 -59 32 -95t85 -36q64 0 117 40t85 103.5t32 129.5q0 61 -31 97t-86 36 q-63 0 -117.5 -42t-85.5 -105.5t-31 -127.5zM868 268q0 111 54.5 209t148.5 157.5t205 59.5q135 0 212 -82t77 -209q0 -111 -54.5 -208t-147.5 -156t-202 -59q-135 0 -214 79.5t-79 208.5zM1042 264q0 -61 31 -96t86 -35q66 0 119 42t85 105.5t32 127.5q0 61 -33 96t-86 35 q-63 0 -116.5 -40t-85.5 -104.5t-32 -130.5z" />
<glyph unicode="&#x26;" horiz-adv-x="1380" d="M31 307q0 176 106.5 292t302.5 198q-61 117 -61 204q0 121 62.5 217.5t166 150.5t219.5 54q145 0 233.5 -81.5t88.5 -211.5q0 -104 -51 -178.5t-137.5 -128t-225.5 -110.5q61 -90 191 -264q123 137 213 288l176 -106q-138 -201 -271 -340l37 -47q72 -92 138 -183 l-220 -81l-118 161q-213 -166 -449 -166q-180 0 -290.5 89.5t-110.5 242.5zM279 330q0 -74 52 -115t134 -41q141 0 303 125q-147 205 -229 336q-123 -55 -191.5 -132t-68.5 -173zM600 1016q0 -72 39 -150q145 51 219 108.5t74 155.5q0 47 -29 77t-78 30q-90 0 -157.5 -65.5 t-67.5 -155.5z" />
<glyph unicode="'" horiz-adv-x="534" d="M266 1049l2 65q12 293 183 293q47 0 77.5 -32t30.5 -79q0 -41 -58.5 -190.5t-115.5 -276.5h-111q-8 136 -8 220z" />
<glyph unicode="(" horiz-adv-x="774" d="M94 328q0 326 175 620.5t470 491.5l115 -148q-514 -434 -514 -989q0 -145 47 -271t145 -249l-145 -125q-141 127 -217 299t-76 371z" />
<glyph unicode=")" horiz-adv-x="772" d="M-74 -205q512 434 512 989q0 143 -47 269.5t-143 251.5l145 122q141 -127 216 -298t75 -369q0 -326 -175 -622t-470 -492z" />
<glyph unicode="*" horiz-adv-x="821" d="M178 930q0 20 11.5 39.5t31.5 27.5q55 27 148 54q76 23 98 32q-41 18 -82 31q-90 31 -129 57q-20 14 -20 41q0 25 18 50q33 37 70 36q10 0 26 -8q37 -25 99 -94q31 -37 57 -61q2 20 2 65v66q0 66 10 110q4 25 28.5 43.5t51.5 18.5q29 0 45 -18.5t12 -43.5 q-8 -45 -30.5 -96t-26.5 -61l-35 -84q18 12 90 63q90 68 133 90q14 8 31 8q23 0 39 -15t16 -44q0 -20 -11 -39.5t-32 -28.5q-55 -27 -147 -53q-76 -23 -98 -33q27 -12 84 -32q90 -33 127 -56q20 -14 20 -41q0 -25 -18 -49q-33 -37 -70 -37q-10 0 -27 9q-31 20 -61.5 52 t-34.5 38q-41 47 -61 65q-2 -31 -1 -53.5t1 -36.5v-47q0 -61 -8 -104q-4 -25 -29 -43.5t-53 -18.5q-29 0 -45.5 18.5t-12.5 43.5q10 49 51 141q27 61 39 100q-20 -12 -47.5 -33.5t-42.5 -31.5q-86 -66 -131 -88q-14 -8 -31 -9q-23 0 -39 15.5t-16 44.5z" />
<glyph unicode="+" horiz-adv-x="1228" d="M137 578l45 213h375l80 380h223l-80 -380h375l-45 -213h-373l-80 -379h-223l80 379h-377z" />
<glyph unicode="," horiz-adv-x="591" d="M8 -211q104 88 170 197q-55 0 -91 36.5t-36 96.5q0 74 53.5 126t122.5 52q68 0 107 -47t39 -127q0 -109 -72 -209t-199 -211z" />
<glyph unicode="-" horiz-adv-x="753" d="M84 453l47 219h551l-47 -219h-551z" />
<glyph unicode="." horiz-adv-x="565" d="M43 121q0 74 54.5 125t123.5 51q61 0 101 -41t40 -100q0 -72 -53 -126.5t-121 -54.5q-65 0 -105 41t-40 105z" />
<glyph unicode="/" horiz-adv-x="919" d="M-184 -152l1056 1674h275l-1057 -1674h-274z" />
<glyph unicode="0" horiz-adv-x="1437" d="M121 522q0 229 100.5 439t277.5 340.5t390 130.5q154 0 266.5 -68t173 -190.5t60.5 -286.5q0 -231 -100.5 -441t-277.5 -340.5t-393 -130.5q-153 0 -264.5 68t-172 191.5t-60.5 287.5zM379 532q0 -150 67.5 -236.5t188.5 -86.5q137 0 250.5 100.5t179 257t65.5 310.5 q0 150 -67.5 235.5t-188.5 85.5q-137 0 -250.5 -100.5t-179 -256t-65.5 -309.5z" />
<glyph unicode="1" horiz-adv-x="804" d="M164 1139l448 268h205l-293 -1407h-254l234 1112l-271 -154z" />
<glyph unicode="2" d="M-10 0l39 209l600 420q332 229 332 418q0 74 -52.5 114.5t-134.5 40.5q-111 0 -209 -53t-198 -152l-144 170q258 264 572 265q125 0 222 -45.5t150.5 -128t53.5 -189.5q0 -178 -114 -320.5t-323 -283.5l-348 -232h633l-49 -233h-1030z" />
<glyph unicode="3" horiz-adv-x="1224" d="M-2 219l178 156q57 -84 143.5 -128t192.5 -44q92 0 170 34.5t125 94t47 133.5q0 70 -65.5 102.5t-198.5 32.5l-166 -2l45 221h149q139 -2 234.5 65.5t95.5 174.5q0 66 -57 104.5t-154 38.5q-190 0 -389 -180l-129 168q242 242 553 242q203 0 321.5 -90.5t118.5 -237.5 q0 -143 -93 -243.5t-247 -143.5q98 -23 166 -93.5t68 -181.5q0 -137 -83 -243.5t-220 -165t-295 -58.5q-180 0 -309 67t-201 177z" />
<glyph unicode="4" horiz-adv-x="1310" d="M43 305l12 199l854 903h308l-183 -883h195l-45 -219h-195l-65 -305h-254l63 305h-690zM338 524h442l129 604z" />
<glyph unicode="5" horiz-adv-x="1251" d="M18 199l181 170q63 -82 148 -127t183 -45q94 0 177.5 44t132.5 115.5t49 153.5q0 80 -59.5 127t-163.5 47q-156 0 -318 -104l-164 79l174 748h899l-47 -233h-661l-92 -359q131 82 291 82q176 0 286.5 -94t110.5 -260q0 -162 -84 -292t-229.5 -203t-317.5 -73 q-322 1 -496 224z" />
<glyph unicode="6" horiz-adv-x="1304" d="M109 463q0 244 102 468t282.5 362.5t399.5 138.5q129 0 226.5 -43t172.5 -121l-151 -183q-57 61 -117.5 91t-144.5 30q-154 0 -278 -128t-187 -322q78 70 176 106.5t198 36.5q179 0 292.5 -96t113.5 -262q0 -156 -84 -286t-225.5 -205t-304.5 -75q-238 0 -354.5 130.5 t-116.5 357.5zM362 451q0 -123 53.5 -190.5t164.5 -67.5q90 0 172 46t132 119.5t50 155.5t-62.5 129t-160.5 47q-109 0 -203 -59.5t-146 -155.5v-24z" />
<glyph unicode="7" horiz-adv-x="1236" d="M137 0l817 1174h-714l47 233h1016l-37 -193l-834 -1214h-295z" />
<glyph unicode="8" horiz-adv-x="1267" d="M49 317q0 147 101.5 255t265.5 163q-86 37 -137.5 104.5t-51.5 159.5q0 131 83 229.5t216 151t277 52.5q127 0 231.5 -40t165 -114t60.5 -174q0 -135 -88.5 -231.5t-237.5 -153.5q100 -41 159.5 -117t59.5 -176q0 -137 -87 -239.5t-229.5 -157t-301.5 -54.5 q-142 0 -251.5 41t-172 119t-62.5 182zM309 346q0 -70 65.5 -110.5t172.5 -40.5q88 0 171 33.5t134 92t51 128.5q0 72 -72.5 116.5t-162.5 48.5q-82 -4 -166 -39.5t-138.5 -96t-54.5 -132.5zM471 969q0 -68 61.5 -106t143.5 -44q78 4 153.5 38t125 90.5t49.5 121.5 q0 66 -58.5 105.5t-152.5 39.5q-82 0 -156 -33.5t-120 -90t-46 -121.5z" />
<glyph unicode="9" horiz-adv-x="1306" d="M86 139l152 183q57 -61 117.5 -91t144.5 -30q154 0 277.5 128t187.5 322q-78 -70 -176.5 -106.5t-198.5 -36.5q-178 0 -292 96t-114 262q0 156 84 286t225.5 205t305.5 75q237 0 354 -130.5t117 -357.5q0 -244 -102.5 -468t-282.5 -362.5t-400 -138.5q-129 0 -226 43 t-173 121zM444 893q0 -82 62.5 -129t161.5 -47q108 0 202.5 59.5t145.5 155.5v24q0 123 -53.5 190.5t-163.5 67.5q-90 0 -172 -46t-132.5 -119.5t-50.5 -155.5z" />
<glyph unicode=":" horiz-adv-x="567" d="M43 121q0 74 54.5 125t125.5 51q61 0 100 -41t39 -100q0 -72 -53 -126.5t-121 -54.5q-65 0 -105 41t-40 105zM205 897q0 74 54 125t124 51q61 0 101 -41t40 -102q0 -70 -53 -124t-121 -54q-65 0 -105 41t-40 104z" />
<glyph unicode=";" horiz-adv-x="595" d="M12 -211q104 88 170 197q-55 0 -91 36.5t-36 96.5q0 74 53.5 126t122.5 52q68 0 107 -47t39 -127q0 -109 -72 -209t-199 -211zM227 971q0 74 54.5 125t123.5 51q61 0 101 -41t40 -100q0 -72 -53 -126.5t-121 -54.5q-65 0 -105 41t-40 105z" />
<glyph unicode="&#x3c;" horiz-adv-x="1212" d="M131 604l39 199l1038 432l-41 -209l-809 -321l672 -322l-41 -211z" />
<glyph unicode="=" horiz-adv-x="1228" d="M90 350l45 213h973l-45 -213h-973zM186 813l45 213h973l-45 -213h-973z" />
<glyph unicode="&#x3e;" horiz-adv-x="1210" d="M76 172l43 211l807 322l-672 321l41 209l858 -432l-39 -199z" />
<glyph unicode="?" horiz-adv-x="1040" d="M182 1212q109 102 238 161t270 59q180 0 285.5 -91.5t105.5 -238.5q0 -113 -63.5 -210t-168 -162.5t-224.5 -92.5l-39 -184h-246l70 354q100 6 195 39t155.5 89t60.5 124q0 66 -47 104.5t-133 38.5q-90 0 -174 -43t-156 -112zM256 121q0 74 54.5 125t123.5 51 q61 0 101 -41t40 -100q0 -72 -53 -126.5t-121 -54.5q-65 0 -105 41t-40 105z" />
<glyph unicode="@" horiz-adv-x="1804" d="M74 377q0 250 152.5 483.5t396 377.5t501.5 144q186 0 330.5 -76.5t223.5 -209.5t79 -295q0 -158 -70.5 -308.5t-190.5 -244.5t-259 -94q-98 0 -152.5 44t-60.5 124q-76 -78 -165 -122t-181 -44q-129 0 -204 73.5t-75 198.5q0 143 86 283.5t222.5 230.5t273.5 90 q96 0 157.5 -42t84.5 -109l51 123l207 -17q-96 -233 -84 -203q-78 -186 -113 -279t-35 -130q0 -41 25.5 -64.5t73.5 -23.5q92 0 166.5 78.5t116.5 196.5t42 229q0 145 -71.5 262.5t-200.5 184.5t-297 67q-236 0 -455 -131.5t-355 -344.5t-136 -440q0 -156 72.5 -281.5 t203.5 -197.5t299 -72q125 0 233.5 30t231.5 95l29 -59q-131 -74 -255 -108t-261 -34q-187 0 -331 80t-225 220.5t-81 314.5zM629 481q0 -70 41 -108.5t114 -38.5q90 0 171 58.5t130.5 148.5t49.5 178q0 63 -38 99t-110 36q-88 0 -172 -55.5t-135 -142.5t-51 -175z" />
<glyph unicode="A" horiz-adv-x="1562" d="M-49 0l880 1407h289l-2 -4l293 -1403h-276l-58 266h-671l-166 -266h-289zM537 475h497l-127 592z" />
<glyph unicode="B" horiz-adv-x="1421" d="M53 0l293 1407h684q156 0 254 -83t98 -214q0 -117 -71.5 -216t-196.5 -159q84 -45 136.5 -125t52.5 -168q0 -125 -72 -226t-191.5 -158.5t-259.5 -57.5h-727zM354 221h404q80 0 148.5 34t108.5 93.5t40 128.5q0 66 -53.5 106t-143.5 40h-420zM481 831h365q113 0 191.5 67 t78.5 161q-2 59 -49 93t-129 34h-383z" />
<glyph unicode="C" horiz-adv-x="1421" d="M121 588q0 221 123 415.5t327.5 311.5t436.5 117q143 0 277 -66t216 -170l-207 -154q-47 70 -133 113t-180 43q-158 0 -298 -84t-223 -224t-83 -298q0 -106 52 -194.5t140 -138.5t189 -50q90 0 198.5 47t188.5 123l155 -182q-115 -96 -274.5 -159t-296.5 -63 q-164 0 -303 83t-222 223.5t-83 306.5z" />
<glyph unicode="D" horiz-adv-x="1560" d="M53 0l293 1407h488q195 0 346 -72.5t236 -203t85 -295.5q0 -223 -128 -415t-345 -306.5t-469 -114.5h-506zM358 231h256q168 0 312.5 81t230.5 218.5t86 294.5q0 100 -53 180t-147.5 125.5t-213.5 45.5h-274z" />
<glyph unicode="E" horiz-adv-x="1304" d="M35 0l293 1407h1058l-47 -233h-804l-66 -340h723l-47 -234h-729l-72 -367h799l-49 -233h-1059z" />
<glyph unicode="F" horiz-adv-x="1282" d="M35 0l293 1407h1058l-47 -233h-804l-70 -357h723l-47 -233h-729l-121 -584h-256z" />
<glyph unicode="G" horiz-adv-x="1517" d="M119 582q0 225 126 420.5t333.5 312.5t439.5 117q147 0 284.5 -64.5t219.5 -171.5l-207 -154q-49 72 -138.5 114t-187.5 42q-160 0 -301 -86t-226 -227.5t-85 -298.5q0 -102 51 -188.5t139 -137.5t195 -51q80 0 168 31.5t168 85.5l47 233h-350l43 207h602l-119 -569 q-121 -102 -280.5 -162t-305.5 -60q-170 0 -311 82t-223 221.5t-82 303.5z" />
<glyph unicode="H" horiz-adv-x="1505" d="M35 0l293 1407h256l-117 -573h704l115 573h256l-293 -1407h-254l121 600h-702l-123 -600h-256z" />
<glyph unicode="I" horiz-adv-x="552" d="M39 0l293 1407h254l-293 -1407h-254z" />
<glyph unicode="J" horiz-adv-x="1110" d="M-31 217l199 152q20 -72 82.5 -117t140.5 -45q109 0 196 80t111 198l191 922h254l-199 -958q-29 -139 -109.5 -247t-198.5 -167.5t-251 -59.5t-249 69t-167 173z" />
<glyph unicode="K" horiz-adv-x="1396" d="M51 0l293 1407h256l-141 -666l743 666h332l-698 -625l434 -782h-301l-338 606l-238 -205l-86 -401h-256z" />
<glyph unicode="L" horiz-adv-x="1171" d="M23 0l292 1407h254l-239 -1174h719l-50 -233h-976z" />
<glyph unicode="M" horiz-adv-x="1767" d="M53 0l293 1407h252l285 -858l645 858h256l-293 -1407h-254l199 940l-639 -858l-289 858l-199 -940h-256z" />
<glyph unicode="N" horiz-adv-x="1581" d="M53 0l293 1407h252l539 -989l209 989h253l-292 -1407h-250l-539 989l-209 -989h-256z" />
<glyph unicode="O" horiz-adv-x="1658" d="M117 578q0 225 125 422.5t330.5 314.5t435.5 117q174 0 313 -79t217 -216.5t78 -305.5q0 -225 -125 -422.5t-330 -315.5t-434 -118q-168 0 -308 81t-221 219.5t-81 302.5zM375 590q0 -104 51 -191.5t138 -138.5t190 -51q157 0 297.5 88t224.5 229.5t84 294.5 q0 106 -48 192.5t-135 135.5t-196 49q-158 0 -298 -86t-224 -226.5t-84 -295.5z" />
<glyph unicode="P" horiz-adv-x="1339" d="M35 0l293 1407h604q129 0 230.5 -50t157.5 -139.5t56 -203.5q0 -150 -85 -274t-229 -195.5t-314 -71.5h-357l-100 -473h-256zM438 709h334q90 0 170 41t128 107.5t48 141.5q0 78 -66.5 125t-172.5 47h-344z" />
<glyph unicode="Q" horiz-adv-x="1662" d="M117 578q0 225 125 422.5t330.5 314.5t435.5 117q174 0 313 -79t217 -216.5t78 -305.5q0 -159 -62.5 -305.5t-175.5 -263.5l107 -112l-156 -150l-119 123q-109 -70 -231.5 -109t-251.5 -39q-168 0 -308 81t-221 219.5t-81 302.5zM375 590q0 -104 51 -191.5t138 -138.5 t190 -51q154 0 295 86l-162 168l155 149l170 -176q70 84 109 183.5t39 201.5q0 106 -48 192.5t-135 135.5t-196 49q-158 0 -298 -86t-224 -226.5t-84 -295.5z" />
<glyph unicode="R" horiz-adv-x="1388" d="M35 0l293 1407h604q129 0 230.5 -50t157.5 -139.5t56 -203.5q0 -183 -123 -324t-317 -192l301 -498h-283l-288 473h-275l-100 -473h-256zM438 709h334q90 0 170 41t128 107.5t48 141.5q0 78 -66.5 125t-172.5 47h-344z" />
<glyph unicode="S" horiz-adv-x="1284" d="M-2 213l174 166q76 -84 187.5 -133t220.5 -49q150 0 240.5 67.5t90.5 167.5q0 55 -59 90t-211 74q-152 37 -243 78t-139 104.5t-48 161.5q0 139 74.5 252t209 177.5t306.5 64.5q137 0 270 -55.5t225 -149.5l-166 -174q-70 74 -169 116.5t-185 42.5q-137 0 -221 -66.5 t-84 -164.5q0 -53 61.5 -89t212.5 -73q156 -37 248 -82t136.5 -109.5t44.5 -160.5q0 -143 -80 -255t-219.5 -174.5t-313.5 -62.5q-164 0 -317.5 64.5t-245.5 171.5z" />
<glyph unicode="T" horiz-adv-x="1302" d="M209 1174l47 233h1155l-47 -233h-451l-245 -1174h-254l245 1174h-450z" />
<glyph unicode="U" horiz-adv-x="1540" d="M150 463q0 66 16 147l166 797h254l-168 -809q-10 -57 -10 -100q0 -133 76.5 -212t207.5 -79q109 0 206 53t164.5 147.5t92.5 210.5l162 789h256l-170 -817q-37 -180 -143.5 -319.5t-261 -217.5t-332.5 -78q-156 0 -273 61.5t-180 172t-63 254.5z" />
<glyph unicode="V" horiz-adv-x="1542" d="M223 1407h277l227 -1067l668 1067h288l-880 -1407h-289l2 4z" />
<glyph unicode="W" horiz-adv-x="2209" d="M233 1407h277l90 -1008l545 1008h278l119 -1008l514 1008h285l-737 -1407h-256l-131 1044l-576 -1044h-254z" />
<glyph unicode="X" horiz-adv-x="1464" d="M-61 0l677 713l-370 694h293l266 -498l475 498h317l-677 -713l370 -694h-293l-266 498l-475 -498h-317z" />
<glyph unicode="Y" horiz-adv-x="1404" d="M199 1407h245l285 -657l545 657h297l-737 -879l-115 -528h-260l114 528z" />
<glyph unicode="Z" horiz-adv-x="1333" d="M0 0l35 195l979 979h-758l49 233h1110l-39 -195l-977 -979h781l-50 -233h-1130z" />
<glyph unicode="[" horiz-adv-x="778" d="M-14 -272l362 1738h531l-35 -170h-330l-293 -1398h330l-33 -170h-532z" />
<glyph unicode="\" horiz-adv-x="907" d="M186 1522h263l362 -1674h-264z" />
<glyph unicode="]" horiz-adv-x="776" d="M-74 -272l35 170h330l291 1398h-330l35 170h532l-360 -1738h-533z" />
<glyph unicode="^" horiz-adv-x="999" d="M162 846l432 561h178l199 -561h-180l-134 399l-305 -399h-190z" />
<glyph unicode="_" horiz-adv-x="1212" d="M-178 -305l35 164h1220l-35 -164h-1220z" />
<glyph unicode="`" horiz-adv-x="724" d="M319 1444l236 45l176 -311h-168z" />
<glyph unicode="a" horiz-adv-x="1339" d="M78 401q0 180 82 337t222 251t306 94q109 0 196 -58t132 -159l41 193h250l-222 -1059h-249l32 158q-78 -86 -178 -134.5t-211 -48.5q-113 0 -205 56.5t-144 154t-52 215.5zM324 426q0 -100 65.5 -169t163.5 -69q109 0 201 62.5t147 165t55 219.5q0 98 -70.5 166.5 t-170.5 68.5q-104 0 -194.5 -61t-143.5 -163.5t-53 -219.5z" />
<glyph unicode="b" horiz-adv-x="1341" d="M35 0l297 1432h250l-111 -533q80 86 180.5 135t210.5 49q113 0 205 -56t144.5 -152.5t52.5 -215.5q0 -180 -82 -337.5t-222.5 -252t-306.5 -94.5q-109 0 -195.5 59.5t-131.5 160.5l-41 -195h-250zM385 424q0 -98 69.5 -167t172.5 -69q104 0 194 61.5t143.5 164 t53.5 219.5q0 100 -65.5 168.5t-164.5 68.5q-106 0 -199 -62.5t-148.5 -164.5t-55.5 -219z" />
<glyph unicode="c" horiz-adv-x="1124" d="M74 438q0 172 95 320.5t253 236.5t332 88q113 0 212 -49t162 -131l-188 -133q-31 45 -90 72.5t-121 27.5q-106 0 -201.5 -59t-152 -157.5t-56.5 -207.5q0 -106 73 -182t175 -76q72 0 141.5 32t129.5 87l147 -162q-195 -170 -442 -170q-129 0 -236.5 62.5t-170 169 t-62.5 231.5z" />
<glyph unicode="d" horiz-adv-x="1341" d="M78 401q0 180 82 337t222 251t306 94q106 0 193.5 -58t134.5 -157l117 564h249l-297 -1432h-249l32 158q-78 -86 -178 -134.5t-211 -48.5q-113 0 -205 56.5t-144 154t-52 215.5zM324 426q0 -100 65.5 -169t163.5 -69q109 0 201 62.5t147 165t55 219.5q0 98 -70.5 166.5 t-170.5 68.5q-104 0 -194.5 -61t-143.5 -163.5t-53 -219.5z" />
<glyph unicode="e" horiz-adv-x="1157" d="M74 420q0 176 90 328.5t239.5 243.5t319.5 91q111 0 201 -36.5t141 -102t51 -151.5q0 -167 -136 -259q-133 -91 -366 -90h-10h-295v-20q0 -111 59.5 -169t170.5 -58q82 0 165.5 31.5t145.5 82.5l135 -178q-82 -74 -208 -116t-251 -42q-135 0 -237.5 56.5t-158.5 157 t-56 231.5zM356 635h285q109 0 169 30.5t60 88.5q0 49 -45 78.5t-114 29.5q-119 0 -211 -61.5t-144 -165.5z" />
<glyph unicode="f" horiz-adv-x="753" d="M102 0l179 852h-154l43 207h154l24 121q27 133 122 214t218 81q68 0 125 -25t100 -66l-94 -147q-12 16 -34.5 24.5t-45.5 8.5q-59 0 -102 -40t-55 -93l-17 -78h242l-45 -207h-240l-176 -852h-244z" />
<glyph unicode="g" horiz-adv-x="1300" d="M2 -205l117 168q43 -49 123 -75.5t172 -26.5q158 0 271.5 74.5t137.5 195.5l23 113q-78 -80 -177.5 -123t-205.5 -43q-178 0 -285.5 110.5t-107.5 294.5q0 154 75.5 292t206.5 223t287 85q123 0 212 -54t130 -140l35 170h252l-201 -957q-29 -137 -119 -240.5t-224 -158.5 t-288 -55q-137 0 -250.5 41t-183.5 106zM328 504q0 -98 59 -155.5t162 -57.5q125 0 227.5 80t136.5 194l13 60q2 12 2 34q0 98 -59.5 154.5t-161.5 56.5q-98 0 -186.5 -51t-140.5 -136t-52 -179z" />
<glyph unicode="h" d="M25 0l297 1432h249l-104 -506q61 74 153.5 115.5t190.5 41.5q152 0 243 -89t91 -232q0 -41 -16.5 -128t-53.5 -261l-80 -373h-241l84 401q31 141 43 209t12 92q0 78 -44 123t-120 45q-74 0 -143.5 -32.5t-117.5 -88t-60 -118.5v8l-134 -639h-249z" />
<glyph unicode="i" horiz-adv-x="526" d="M27 0l221 1059h250l-222 -1059h-249zM287 1350q0 61 47 107t108 46q55 0 91 -36.5t36 -92.5q0 -61 -47 -107t-106 -46q-56 0 -92.5 36.5t-36.5 92.5z" />
<glyph unicode="j" horiz-adv-x="526" d="M-285 -322l54 183q45 -16 104 -17q53 0 96 39t54 94l225 1082h250l-234 -1120q-27 -137 -124 -220.5t-226 -83.5q-55 0 -108.5 12.5t-90.5 30.5zM295 1352q0 57 47 104t109 47q55 0 91 -38t36 -93q0 -59 -46.5 -106t-105.5 -47q-57 0 -94 38.5t-37 94.5z" />
<glyph unicode="k" horiz-adv-x="1150" d="M25 0l297 1432h249l-182 -875l561 502h301l-536 -473l297 -586h-285l-209 422l-190 -162l-54 -260h-249z" />
<glyph unicode="l" horiz-adv-x="526" d="M29 0l297 1432h249l-296 -1432h-250z" />
<glyph unicode="m" horiz-adv-x="1880" d="M25 0l221 1059h250l-29 -133q53 76 135 116.5t178 40.5q111 0 192 -54t113 -148q55 94 155.5 148t215.5 54q150 0 240 -89t90 -232q0 -39 -20.5 -143.5t-69.5 -331.5q-49 -242 -60 -287h-243l57 272q45 209 65.5 311.5t20.5 121.5q-4 165 -154 165h-2q-102 0 -188 -67.5 t-102 -163.5l-134 -639h-243l84 399q31 143 45 216q12 64 12 85v5q0 78 -38 121.5t-116 43.5q-98 0 -181 -61t-107 -156l-138 -653h-249z" />
<glyph unicode="n" d="M27 0l221 1059h250l-27 -127q61 70 152.5 110.5t187.5 40.5q152 0 243 -89t91 -232q0 -41 -16.5 -128t-53.5 -261l-80 -373h-241l84 401q31 141 43 209t12 92q0 78 -44 123t-120 45q-106 0 -198.5 -64.5t-118.5 -154.5l-136 -651h-249z" />
<glyph unicode="o" horiz-adv-x="1298" d="M74 438q0 172 95 320.5t252 236.5t331 88q129 0 237.5 -62.5t172 -167.5t63.5 -230q0 -172 -95.5 -321.5t-253 -238t-333.5 -88.5q-129 0 -236.5 62.5t-170 169t-62.5 231.5zM315 446q0 -70 34 -129t92.5 -94t125.5 -35q107 0 203 59.5t154.5 158t58.5 206.5 q0 106 -73.5 182t-180.5 76q-106 0 -202.5 -59t-154 -157.5t-57.5 -207.5z" />
<glyph unicode="p" horiz-adv-x="1341" d="M-39 -352l293 1411h250l-33 -160q80 86 180.5 135t210.5 49q113 0 205 -56t144.5 -152.5t52.5 -215.5q0 -180 -82 -337.5t-222.5 -252t-306.5 -94.5q-109 0 -195.5 59.5t-133.5 160.5l-113 -547h-250zM385 424q0 -98 69.5 -167t172.5 -69q104 0 194 61.5t143.5 164 t53.5 219.5q0 100 -65.5 168.5t-164.5 68.5q-106 0 -199 -62.5t-148.5 -164.5t-55.5 -219z" />
<glyph unicode="q" horiz-adv-x="1341" d="M78 401q0 180 82 337t222 251t306 94q109 0 196 -58t132 -159l41 193h250l-293 -1411h-250l106 512q-80 -86 -180 -135.5t-211 -49.5q-113 0 -205 56.5t-144 154t-52 215.5zM324 426q0 -100 65.5 -169t163.5 -69q109 0 201 62.5t147 165t55 219.5q0 98 -70.5 166.5 t-170.5 68.5q-104 0 -194.5 -61t-143.5 -163.5t-53 -219.5z" />
<glyph unicode="r" horiz-adv-x="858" d="M33 0l221 1059h250l-41 -195q72 105 180.5 162t237.5 57l-29 -213q-170 0 -298 -96t-161 -248v2l-110 -528h-250z" />
<glyph unicode="s" horiz-adv-x="1024" d="M-16 139l137 162q66 -55 149.5 -85t165.5 -30q94 0 158.5 39t64.5 99q0 33 -36.5 59.5t-137.5 56.5q-121 33 -190.5 65t-107 80t-37.5 126q0 106 59 191t163.5 133t233.5 48q106 0 206.5 -34.5t184.5 -98.5l-131 -172q-57 45 -126.5 68.5t-139.5 23.5q-88 0 -147.5 -34.5 t-59.5 -90.5q0 -29 40 -54t142 -58q115 -35 182.5 -68t105.5 -83t38 -128q0 -106 -61.5 -192t-170 -136.5t-241.5 -50.5q-127 0 -244.5 44t-199.5 120z" />
<glyph unicode="t" horiz-adv-x="802" d="M127 852l43 207h154l61 291h244l-62 -291h240l-45 -207h-238q-43 -207 -47 -223q-41 -199 -56 -273.5t-15 -89.5q0 -37 18 -57.5t49 -20.5q35 0 70 13.5t53 31.5l49 -180q-51 -37 -112.5 -57.5t-122.5 -20.5q-115 0 -183.5 69t-68.5 177q0 33 19.5 130.5t64.5 310.5 q10 51 20 98t19 92h-154z" />
<glyph unicode="u" d="M96 297q0 41 16.5 128t53.5 261l80 373h241l-84 -402q-31 -141 -43 -208.5t-12 -92.5q0 -78 44 -123t120 -45q106 0 198.5 64.5t118.5 155.5l136 651h249l-221 -1059h-250l27 127q-61 -70 -152.5 -111t-187.5 -41q-152 0 -243 89.5t-91 232.5z" />
<glyph unicode="v" horiz-adv-x="1212" d="M147 1059h261l143 -770l465 770h270l-670 -1059h-233z" />
<glyph unicode="w" horiz-adv-x="1718" d="M160 1059h243l70 -723l389 723h209l84 -723l373 723h254l-578 -1059h-227l-74 725l-379 -725h-227z" />
<glyph unicode="x" horiz-adv-x="1148" d="M-70 0l514 545l-268 514h268l172 -330l312 330h278l-489 -520l280 -539h-268l-184 354l-334 -354h-281z" />
<glyph unicode="y" horiz-adv-x="1226" d="M-51 -309l76 172q57 -35 122 -35q47 0 89.5 20.5t68.5 57.5l70 86l-223 1067h258l143 -791l457 791h264l-686 -1143q-172 -285 -412 -285q-59 0 -119.5 16.5t-107.5 43.5z" />
<glyph unicode="z" horiz-adv-x="1079" d="M-12 0l35 182l698 658h-547l45 219h879l-35 -182l-701 -658h566l-47 -219h-893z" />
<glyph unicode="{" horiz-adv-x="841" d="M78 465l16 158q106 0 165.5 48t80.5 146l51 258q25 117 81 187.5t160.5 109.5t276.5 55l6 -157q-121 -16 -186 -42t-97 -70t-48 -120l-54 -272q-20 -92 -67 -145.5t-137 -81.5q55 -20 84.5 -63.5t29.5 -106.5q0 -55 -39 -211q-37 -160 -36 -205q0 -43 21.5 -67.5 t69.5 -40t140 -27.5l-35 -158q-209 18 -303 85t-94 192q0 47 18.5 130t20.5 97q35 147 35 196q0 57 -37 81t-123 24z" />
<glyph unicode="|" horiz-adv-x="598" d="M68 -152l348 1674h180l-348 -1674h-180z" />
<glyph unicode="}" horiz-adv-x="841" d="M-68 -182q119 16 183.5 41.5t98.5 69.5t50 122l53 271q20 94 67.5 147t137.5 82q-55 20 -84.5 63t-29.5 107q0 51 41 227q35 152 34 189q0 43 -21.5 66.5t-69.5 38.5t-142 28l37 157q209 -18 303 -84.5t94 -191.5q0 -35 -12.5 -99.5t-26.5 -129.5q-35 -147 -35 -195 q0 -57 37 -80.5t123 -23.5l-14 -158q-104 0 -165 -47t-83 -146l-53 -260q-23 -115 -79.5 -186.5t-160.5 -110.5t-278 -55z" />
<glyph unicode="~" horiz-adv-x="923" d="M129 633q41 129 103.5 190.5t150.5 61.5q47 0 82.5 -18.5t78.5 -53.5q27 -23 45.5 -33t36.5 -10q84 0 131 127l127 -39q-41 -129 -103.5 -190t-150.5 -61q-49 0 -85.5 19t-75.5 52q-27 23 -45.5 33t-36.5 10q-41 0 -76 -32.5t-57 -94.5z" />
<glyph unicode="&#xa1;" horiz-adv-x="602" d="M-20 -348l253 946h173l-138 -946h-288zM221 903q0 72 53.5 126t120.5 54q66 0 106 -41t40 -104q0 -74 -54.5 -125t-124.5 -51q-61 0 -101 41t-40 100z" />
<glyph unicode="&#xa2;" horiz-adv-x="1124" d="M74 438q0 154 77.5 290t209 228.5t286.5 118.5l27 131h184l-27 -129q88 -14 167 -61t130 -113l-188 -133q-23 35 -63.5 59.5t-90.5 34.5l-137 -665q106 29 189 108l147 -162q-172 -150 -383 -168l-27 -129h-184l29 144q-152 39 -249 163t-97 283zM319 446 q0 -77 40 -140.5t108 -94.5l131 635q-121 -45 -200 -156.5t-79 -243.5z" />
<glyph unicode="&#xa3;" horiz-adv-x="1316" d="M-8 0l20 109l183 100l67 317h-137l33 154h135l59 278q29 139 109 247t195.5 167.5t246.5 59.5q147 0 265 -69t159 -173l-199 -152q-10 74 -70.5 118t-144.5 44q-111 0 -199.5 -80t-113.5 -198l-49 -242h360l-32 -154h-361l-63 -317h719l-44 -209h-1138z" />
<glyph unicode="&#xa5;" horiz-adv-x="1404" d="M131 215l31 154h377l30 141h-376l30 154h293l-317 743h245l285 -657l545 657h297l-625 -743h293l-31 -154h-379l-30 -141h379l-31 -154h-381l-47 -215h-260l47 215h-375z" />
<glyph unicode="&#xa8;" horiz-adv-x="933" d="M297 1323q0 55 41 96t96 41q49 0 83 -34.5t34 -84.5q0 -55 -42 -96t-93 -41q-54 0 -86.5 34t-32.5 85zM717 1323q0 55 42 96t95 41q51 0 84 -34.5t33 -84.5q0 -55 -42 -96t-93 -41q-54 0 -86.5 34t-32.5 85z" />
<glyph unicode="&#xab;" horiz-adv-x="1155" d="M76 518l415 412l197 -45l-373 -365l215 -370l-203 -48zM529 518l415 412l197 -45l-373 -365l215 -370l-203 -48z" />
<glyph unicode="&#xad;" horiz-adv-x="753" d="M84 453l47 219h551l-47 -219h-551z" />
<glyph unicode="&#xaf;" horiz-adv-x="942" d="M268 1200l31 154h684l-31 -154h-684z" />
<glyph unicode="&#xb4;" horiz-adv-x="737" d="M264 1178l305 311l230 -45l-355 -266h-180z" />
<glyph unicode="&#xb6;" horiz-adv-x="1382" d="M162 924q0 139 72.5 248.5t195.5 171t270 61.5h656l-314 -1507h-188l276 1331h-243l-277 -1331h-188l151 690q-190 0 -300.5 92t-110.5 244z" />
<glyph unicode="&#xb7;" horiz-adv-x="524" d="M125 547q0 68 46 116t112 48q57 0 95 -38t38 -93q0 -68 -47 -116t-113 -48q-57 0 -94 38t-37 93z" />
<glyph unicode="&#xb8;" horiz-adv-x="659" d="M-49 -336l57 96q43 -41 109 -41q59 0 93 21.5t34 58.5q0 20 -13.5 33.5t-33.5 13.5q-39 0 -76 -26l-41 47l96 156h141l-71 -113q57 -2 92 -37t35 -86q0 -84 -67.5 -135t-166.5 -51q-59 0 -107 18.5t-81 44.5z" />
<glyph unicode="&#xbb;" horiz-adv-x="1155" d="M12 150l375 370l-217 365l200 45l254 -412l-417 -416zM461 150l375 370l-217 365l200 45l254 -412l-417 -416z" />
<glyph unicode="&#xbf;" horiz-adv-x="1040" d="M-41 -43q0 113 63.5 210t168 162.5t225.5 92.5l39 184h245l-69 -354q-100 -6 -195.5 -39t-156 -89t-60.5 -124q0 -66 47 -104.5t133 -38.5q90 0 174 43t156 112l129 -166q-109 -102 -237.5 -160.5t-270.5 -58.5q-180 0 -285.5 91.5t-105.5 238.5zM465 903q0 72 53 126 t121 54q66 0 105.5 -41t39.5 -104q0 -74 -54 -125t-124 -51q-61 0 -101 41t-40 100z" />
<glyph unicode="&#xc0;" horiz-adv-x="1562" d="M-49 0l880 1407h289l-2 -4l293 -1403h-276l-58 266h-671l-166 -266h-289zM537 475h497l-127 592zM657 1792l236 45l176 -311h-168z" />
<glyph unicode="&#xc1;" horiz-adv-x="1562" d="M-49 0l880 1407h289l-2 -4l293 -1403h-276l-58 266h-671l-166 -266h-289zM537 475h497l-127 592zM901 1526l305 311l230 -45l-355 -266h-180z" />
<glyph unicode="&#xc2;" horiz-adv-x="1562" d="M-49 0l880 1407h289l-2 -4l293 -1403h-276l-58 266h-671l-166 -266h-289zM537 475h497l-127 592zM686 1526l273 295h213l153 -295h-158l-120 161l-193 -161h-168z" />
<glyph unicode="&#xc3;" horiz-adv-x="1562" d="M-49 0l880 1407h289l-2 -4l293 -1403h-276l-58 266h-671l-166 -266h-289zM537 475h497l-127 592zM658 1548q41 129 103.5 190.5t150.5 61.5q47 0 82.5 -18.5t78.5 -53.5q27 -23 45.5 -33t36.5 -10q84 0 131 127l127 -39q-41 -129 -103.5 -190t-150.5 -61q-49 0 -85.5 19 t-75.5 52q-27 23 -45.5 33t-36.5 10q-41 0 -76 -32.5t-57 -94.5z" />
<glyph unicode="&#xc4;" horiz-adv-x="1562" d="M-49 0l880 1407h289l-2 -4l293 -1403h-276l-58 266h-671l-166 -266h-289zM537 475h497l-127 592zM703 1671q0 55 41 96t96 41q49 0 83 -34.5t34 -84.5q0 -55 -42 -96t-93 -41q-54 0 -86.5 34t-32.5 85zM1123 1671q0 55 42 96t95 41q51 0 84 -34.5t33 -84.5q0 -55 -42 -96 t-93 -41q-54 0 -86.5 34t-32.5 85z" />
<glyph unicode="&#xc5;" horiz-adv-x="1562" d="M-49 0l880 1407h289l-2 -4l293 -1403h-276l-58 266h-671l-166 -266h-289zM537 475h497l-127 592zM827 1724q0 70 40 132.5t104.5 100.5t134.5 38q80 0 131 -51.5t51 -127.5q0 -72 -40 -135t-103.5 -101t-132.5 -38q-80 0 -132.5 52t-52.5 130zM944 1747q0 -39 25.5 -64.5 t64.5 -25.5q53 0 96 41t43 94q0 39 -26.5 64.5t-65.5 25.5q-51 0 -94 -41t-43 -94z" />
<glyph unicode="&#xc6;" horiz-adv-x="2170" d="M-70 0l1106 1407h1217l-47 -233h-805l-66 -340h723l-47 -234h-729l-72 -367h799l-49 -233h-1059l55 266h-516l-209 -266h-301zM604 475h395l144 686z" />
<glyph unicode="&#xc7;" horiz-adv-x="1421" d="M121 588q0 221 123 415.5t327.5 311.5t436.5 117q143 0 277 -66t216 -170l-207 -154q-47 70 -133 113t-180 43q-158 0 -298 -84t-223 -224t-83 -298q0 -106 52 -194.5t140 -138.5t189 -50q90 0 198.5 47t188.5 123l155 -182q-102 -88 -243.5 -147.5t-272.5 -72.5l-43 -67 q57 -2 92 -37t35 -86q0 -84 -67.5 -135t-165.5 -51q-59 0 -107.5 18.5t-81.5 44.5l58 96q43 -41 108 -41q59 0 93 21.5t34 58.5q0 20 -13 33.5t-34 13.5q-39 0 -76 -26l-41 47l72 115q-145 20 -266 106t-190.5 217t-69.5 283z" />
<glyph unicode="&#xc8;" horiz-adv-x="1304" d="M35 0l293 1407h1058l-47 -233h-804l-66 -340h723l-47 -234h-729l-72 -367h799l-49 -233h-1059zM643 1792l236 45l176 -311h-168z" />
<glyph unicode="&#xc9;" horiz-adv-x="1304" d="M35 0l293 1407h1058l-47 -233h-804l-66 -340h723l-47 -234h-729l-72 -367h799l-49 -233h-1059zM667 1526l305 311l230 -45l-355 -266h-180z" />
<glyph unicode="&#xca;" horiz-adv-x="1304" d="M35 0l293 1407h1058l-47 -233h-804l-66 -340h723l-47 -234h-729l-72 -367h799l-49 -233h-1059zM561 1526l273 295h213l153 -295h-158l-120 161l-193 -161h-168z" />
<glyph unicode="&#xcb;" horiz-adv-x="1304" d="M35 0l293 1407h1058l-47 -233h-804l-66 -340h723l-47 -234h-729l-72 -367h799l-49 -233h-1059zM578 1671q0 55 41 96t96 41q49 0 83 -34.5t34 -84.5q0 -55 -42 -96t-93 -41q-54 0 -86.5 34t-32.5 85zM998 1671q0 55 42 96t95 41q51 0 84 -34.5t33 -84.5q0 -55 -42 -96 t-93 -41q-54 0 -86.5 34t-32.5 85z" />
<glyph unicode="&#xcc;" horiz-adv-x="552" d="M39 0l293 1407h254l-293 -1407h-254zM163 1792l236 45l176 -311h-168z" />
<glyph unicode="&#xcd;" horiz-adv-x="552" d="M39 0l293 1407h254l-293 -1407h-254zM381 1526l305 311l230 -45l-355 -266h-180z" />
<glyph unicode="&#xce;" horiz-adv-x="552" d="M39 0l293 1407h254l-293 -1407h-254zM162 1526l273 295h213l153 -295h-158l-120 161l-193 -161h-168z" />
<glyph unicode="&#xcf;" horiz-adv-x="552" d="M39 0l293 1407h254l-293 -1407h-254zM178 1671q0 55 41 96t96 41q49 0 83 -34.5t34 -84.5q0 -55 -42 -96t-93 -41q-54 0 -86.5 34t-32.5 85zM598 1671q0 55 42 96t95 41q51 0 84 -34.5t33 -84.5q0 -55 -42 -96t-93 -41q-54 0 -86.5 34t-32.5 85z" />
<glyph unicode="&#xd0;" horiz-adv-x="1628" d="M98 596l49 233h146l121 578h487q195 0 346.5 -72.5t236.5 -203t85 -295.5q0 -223 -128 -415t-345 -306.5t-469 -114.5h-506l125 596h-148zM426 231h256q168 0 312.5 81t230.5 218.5t86 294.5q0 100 -53.5 180t-147.5 125.5t-213 45.5h-274l-72 -347h352l-51 -233h-350z " />
<glyph unicode="&#xd1;" horiz-adv-x="1581" d="M53 0l293 1407h252l539 -989l209 989h253l-292 -1407h-250l-539 989l-209 -989h-256zM645 1548q41 129 103.5 190.5t150.5 61.5q47 0 82.5 -18.5t78.5 -53.5q27 -23 45.5 -33t36.5 -10q84 0 131 127l127 -39q-41 -129 -103.5 -190t-150.5 -61q-49 0 -85.5 19t-75.5 52 q-27 23 -45.5 33t-36.5 10q-41 0 -76 -32.5t-57 -94.5z" />
<glyph unicode="&#xd2;" horiz-adv-x="1658" d="M117 578q0 225 125 422.5t330.5 314.5t435.5 117q174 0 313 -79t217 -216.5t78 -305.5q0 -225 -125 -422.5t-330 -315.5t-434 -118q-168 0 -308 81t-221 219.5t-81 302.5zM375 590q0 -104 51 -191.5t138 -138.5t190 -51q157 0 297.5 88t224.5 229.5t84 294.5 q0 106 -48 192.5t-135 135.5t-196 49q-158 0 -298 -86t-224 -226.5t-84 -295.5zM708 1792l236 45l176 -311h-168z" />
<glyph unicode="&#xd3;" horiz-adv-x="1658" d="M117 578q0 225 125 422.5t330.5 314.5t435.5 117q174 0 313 -79t217 -216.5t78 -305.5q0 -225 -125 -422.5t-330 -315.5t-434 -118q-168 0 -308 81t-221 219.5t-81 302.5zM375 590q0 -104 51 -191.5t138 -138.5t190 -51q157 0 297.5 88t224.5 229.5t84 294.5 q0 106 -48 192.5t-135 135.5t-196 49q-158 0 -298 -86t-224 -226.5t-84 -295.5zM932 1526l305 311l230 -45l-355 -266h-180z" />
<glyph unicode="&#xd4;" horiz-adv-x="1658" d="M117 578q0 225 125 422.5t330.5 314.5t435.5 117q174 0 313 -79t217 -216.5t78 -305.5q0 -225 -125 -422.5t-330 -315.5t-434 -118q-168 0 -308 81t-221 219.5t-81 302.5zM375 590q0 -104 51 -191.5t138 -138.5t190 -51q157 0 297.5 88t224.5 229.5t84 294.5 q0 106 -48 192.5t-135 135.5t-196 49q-158 0 -298 -86t-224 -226.5t-84 -295.5zM704 1526l273 295h213l153 -295h-158l-120 161l-193 -161h-168z" />
<glyph unicode="&#xd5;" horiz-adv-x="1658" d="M117 578q0 225 125 422.5t330.5 314.5t435.5 117q174 0 313 -79t217 -216.5t78 -305.5q0 -225 -125 -422.5t-330 -315.5t-434 -118q-168 0 -308 81t-221 219.5t-81 302.5zM375 590q0 -104 51 -191.5t138 -138.5t190 -51q157 0 297.5 88t224.5 229.5t84 294.5 q0 106 -48 192.5t-135 135.5t-196 49q-158 0 -298 -86t-224 -226.5t-84 -295.5zM676 1548q41 129 103.5 190.5t150.5 61.5q47 0 82.5 -18.5t78.5 -53.5q27 -23 45.5 -33t36.5 -10q84 0 131 127l127 -39q-41 -129 -103.5 -190t-150.5 -61q-49 0 -85.5 19t-75.5 52 q-27 23 -45.5 33t-36.5 10q-41 0 -76 -32.5t-57 -94.5z" />
<glyph unicode="&#xd6;" horiz-adv-x="1658" d="M117 578q0 225 125 422.5t330.5 314.5t435.5 117q174 0 313 -79t217 -216.5t78 -305.5q0 -225 -125 -422.5t-330 -315.5t-434 -118q-168 0 -308 81t-221 219.5t-81 302.5zM375 590q0 -104 51 -191.5t138 -138.5t190 -51q157 0 297.5 88t224.5 229.5t84 294.5 q0 106 -48 192.5t-135 135.5t-196 49q-158 0 -298 -86t-224 -226.5t-84 -295.5zM721 1671q0 55 41 96t96 41q49 0 83 -34.5t34 -84.5q0 -55 -42 -96t-93 -41q-54 0 -86.5 34t-32.5 85zM1141 1671q0 55 42 96t95 41q51 0 84 -34.5t33 -84.5q0 -55 -42 -96t-93 -41 q-54 0 -86.5 34t-32.5 85z" />
<glyph unicode="&#xd7;" horiz-adv-x="1134" d="M125 416l321 268l-213 266l185 158l215 -268l317 264l125 -152l-319 -266l213 -266l-185 -158l-215 268l-317 -266z" />
<glyph unicode="&#xd8;" horiz-adv-x="1658" d="M2 0l234 219q-57 76 -88 168t-31 191q0 225 125 422.5t330.5 314.5t435.5 117q223 0 385 -127l108 102h242l-236 -221q109 -154 109 -355q0 -225 -125 -422.5t-330 -315.5t-434 -118q-211 0 -375 125l-108 -100h-242zM375 590q0 -103 51 -193l780 733q-96 68 -225 68 q-158 0 -298 -86t-224 -226.5t-84 -295.5zM539 276q96 -68 215 -67q158 0 298 88t224 229.5t84 294.5q0 101 -45 185z" />
<glyph unicode="&#xd9;" horiz-adv-x="1540" d="M150 463q0 66 16 147l166 797h254l-168 -809q-10 -57 -10 -100q0 -133 76.5 -212t207.5 -79q109 0 206 53t164.5 147.5t92.5 210.5l162 789h256l-170 -817q-37 -180 -143.5 -319.5t-261 -217.5t-332.5 -78q-156 0 -273 61.5t-180 172t-63 254.5zM737 1792l236 45 l176 -311h-168z" />
<glyph unicode="&#xda;" horiz-adv-x="1540" d="M150 463q0 66 16 147l166 797h254l-168 -809q-10 -57 -10 -100q0 -133 76.5 -212t207.5 -79q109 0 206 53t164.5 147.5t92.5 210.5l162 789h256l-170 -817q-37 -180 -143.5 -319.5t-261 -217.5t-332.5 -78q-156 0 -273 61.5t-180 172t-63 254.5zM762 1526l305 311 l230 -45l-355 -266h-180z" />
<glyph unicode="&#xdb;" horiz-adv-x="1540" d="M150 463q0 66 16 147l166 797h254l-168 -809q-10 -57 -10 -100q0 -133 76.5 -212t207.5 -79q109 0 206 53t164.5 147.5t92.5 210.5l162 789h256l-170 -817q-37 -180 -143.5 -319.5t-261 -217.5t-332.5 -78q-156 0 -273 61.5t-180 172t-63 254.5zM655 1526l273 295h213 l153 -295h-158l-120 161l-193 -161h-168z" />
<glyph unicode="&#xdc;" horiz-adv-x="1540" d="M150 463q0 66 16 147l166 797h254l-168 -809q-10 -57 -10 -100q0 -133 76.5 -212t207.5 -79q109 0 206 53t164.5 147.5t92.5 210.5l162 789h256l-170 -817q-37 -180 -143.5 -319.5t-261 -217.5t-332.5 -78q-156 0 -273 61.5t-180 172t-63 254.5zM672 1671q0 55 41 96 t96 41q49 0 83 -34.5t34 -84.5q0 -55 -42 -96t-93 -41q-54 0 -86.5 34t-32.5 85zM1092 1671q0 55 42 96t95 41q51 0 84 -34.5t33 -84.5q0 -55 -42 -96t-93 -41q-54 0 -86.5 34t-32.5 85z" />
<glyph unicode="&#xdd;" horiz-adv-x="1404" d="M199 1407h245l285 -657l545 657h297l-737 -879l-115 -528h-260l114 528zM670 1526l305 311l230 -45l-355 -266h-180z" />
<glyph unicode="&#xde;" horiz-adv-x="1341" d="M35 0l293 1407h254l-47 -231h350q129 0 230.5 -49.5t157.5 -137.5t56 -201q0 -154 -85 -278.5t-228.5 -196t-308.5 -71.5h-365l-51 -242h-256zM391 475h318q96 0 179 39t133 106.5t50 149.5t-65.5 126t-182.5 44h-336z" />
<glyph unicode="&#xdf;" horiz-adv-x="1230" d="M35 0l225 1077q25 115 100.5 202t189.5 135t247 48q188 0 300.5 -91t112.5 -241q0 -129 -72.5 -231t-199.5 -164q88 -47 138 -122.5t50 -170.5q0 -129 -71.5 -229t-191.5 -156.5t-259 -56.5h-168l47 221h99q76 0 144.5 36t110.5 95.5t42 126.5q0 66 -52.5 105t-144.5 39 h-115l43 208h62q70 0 132 36t101 92.5t39 115.5q0 61 -45 98t-125 37q-100 0 -179 -60t-97 -151l-209 -999h-254z" />
<glyph unicode="&#xe0;" horiz-adv-x="1339" d="M78 401q0 180 82 337t222 251t306 94q109 0 196 -58t132 -159l41 193h250l-222 -1059h-249l32 158q-78 -86 -178 -134.5t-211 -48.5q-113 0 -205 56.5t-144 154t-52 215.5zM324 426q0 -100 65.5 -169t163.5 -69q109 0 201 62.5t147 165t55 219.5q0 98 -70.5 166.5 t-170.5 68.5q-104 0 -194.5 -61t-143.5 -163.5t-53 -219.5zM532 1444l236 45l176 -311h-168z" />
<glyph unicode="&#xe1;" horiz-adv-x="1339" d="M78 401q0 180 82 337t222 251t306 94q109 0 196 -58t132 -159l41 193h250l-222 -1059h-249l32 158q-78 -86 -178 -134.5t-211 -48.5q-113 0 -205 56.5t-144 154t-52 215.5zM324 426q0 -100 65.5 -169t163.5 -69q109 0 201 62.5t147 165t55 219.5q0 98 -70.5 166.5 t-170.5 68.5q-104 0 -194.5 -61t-143.5 -163.5t-53 -219.5zM557 1178l305 311l230 -45l-355 -266h-180z" />
<glyph unicode="&#xe2;" horiz-adv-x="1339" d="M78 401q0 180 82 337t222 251t306 94q109 0 196 -58t132 -159l41 193h250l-222 -1059h-249l32 158q-78 -86 -178 -134.5t-211 -48.5q-113 0 -205 56.5t-144 154t-52 215.5zM324 426q0 -100 65.5 -169t163.5 -69q109 0 201 62.5t147 165t55 219.5q0 98 -70.5 166.5 t-170.5 68.5q-104 0 -194.5 -61t-143.5 -163.5t-53 -219.5zM450 1178l273 295h213l153 -295h-158l-120 161l-193 -161h-168z" />
<glyph unicode="&#xe3;" horiz-adv-x="1339" d="M78 401q0 180 82 337t222 251t306 94q109 0 196 -58t132 -159l41 193h250l-222 -1059h-249l32 158q-78 -86 -178 -134.5t-211 -48.5q-113 0 -205 56.5t-144 154t-52 215.5zM324 426q0 -100 65.5 -169t163.5 -69q109 0 201 62.5t147 165t55 219.5q0 98 -70.5 166.5 t-170.5 68.5q-104 0 -194.5 -61t-143.5 -163.5t-53 -219.5zM422 1200q41 129 103.5 190.5t150.5 61.5q47 0 82.5 -18.5t78.5 -53.5q27 -23 45.5 -33t36.5 -10q84 0 131 127l127 -39q-41 -129 -103.5 -190t-150.5 -61q-49 0 -85.5 19t-75.5 52q-27 23 -45.5 33t-36.5 10 q-41 0 -76 -32.5t-57 -94.5z" />
<glyph unicode="&#xe4;" horiz-adv-x="1339" d="M78 401q0 180 82 337t222 251t306 94q109 0 196 -58t132 -159l41 193h250l-222 -1059h-249l32 158q-78 -86 -178 -134.5t-211 -48.5q-113 0 -205 56.5t-144 154t-52 215.5zM324 426q0 -100 65.5 -169t163.5 -69q109 0 201 62.5t147 165t55 219.5q0 98 -70.5 166.5 t-170.5 68.5q-104 0 -194.5 -61t-143.5 -163.5t-53 -219.5zM467 1323q0 55 41 96t96 41q49 0 83 -34.5t34 -84.5q0 -55 -42 -96t-93 -41q-54 0 -86.5 34t-32.5 85zM887 1323q0 55 42 96t95 41q51 0 84 -34.5t33 -84.5q0 -55 -42 -96t-93 -41q-54 0 -86.5 34t-32.5 85z" />
<glyph unicode="&#xe5;" horiz-adv-x="1339" d="M78 401q0 180 82 337t222 251t306 94q109 0 196 -58t132 -159l41 193h250l-222 -1059h-249l32 158q-78 -86 -178 -134.5t-211 -48.5q-113 0 -205 56.5t-144 154t-52 215.5zM324 426q0 -100 65.5 -169t163.5 -69q109 0 201 62.5t147 165t55 219.5q0 98 -70.5 166.5 t-170.5 68.5q-104 0 -194.5 -61t-143.5 -163.5t-53 -219.5zM592 1376q0 70 40 132.5t104.5 100.5t134.5 38q80 0 131 -51.5t51 -127.5q0 -72 -40 -135t-103.5 -101t-132.5 -38q-80 0 -132.5 52t-52.5 130zM709 1399q0 -39 25.5 -64.5t64.5 -25.5q53 0 96 41t43 94 q0 39 -26.5 64.5t-65.5 25.5q-51 0 -94 -41t-43 -94z" />
<glyph unicode="&#xe6;" horiz-adv-x="1875" d="M31 260q0 39 8 74q20 96 91 172t175.5 118t218.5 42q150 0 297 -64l10 45q8 45 9 68q0 76 -47.5 120t-153.5 44q-76 0 -150.5 -22.5t-160.5 -63.5l-68 182q123 57 224.5 82.5t195.5 25.5q127 0 213 -46t125 -130q90 84 200.5 130t231.5 46q111 0 201 -36.5t141 -102 t51 -151.5q0 -166 -136 -258.5t-376 -90.5h-295v-20q0 -111 59.5 -169t170.5 -58q82 0 166 31.5t145 82.5l135 -178q-82 -74 -208 -116t-251 -42q-129 0 -229 51.5t-158 145.5q-82 -92 -200.5 -144.5t-253.5 -52.5q-178 0 -279.5 76t-101.5 209zM272 272q0 -53 46.5 -83.5 t127.5 -30.5q78 0 150 31.5t121 86t61 117.5l15 66q-104 33 -236 33q-100 0 -183 -54.5t-100 -136.5q-2 -10 -2 -29zM1083 635h285q109 0 169 30.5t60 88.5q0 49 -45 78.5t-114 29.5q-119 0 -211 -61.5t-144 -165.5z" />
<glyph unicode="&#xe7;" horiz-adv-x="1124" d="M74 438q0 172 95 320.5t253 236.5t332 88q113 0 212 -49t162 -131l-188 -133q-31 45 -90 72.5t-121 27.5q-106 0 -201.5 -59t-152 -157.5t-56.5 -207.5q0 -106 73 -182t175 -76q72 0 141.5 32t129.5 87l147 -162q-174 -154 -389 -168l-43 -67q57 -2 92 -37t35 -86 q0 -84 -67.5 -135t-166.5 -51q-59 0 -107 18.5t-81 44.5l57 96q43 -41 109 -41q59 0 93 21.5t34 58.5q0 20 -13.5 33.5t-33.5 13.5q-39 0 -76 -26l-41 47l72 117q-109 18 -197 83.5t-138 163t-50 207.5z" />
<glyph unicode="&#xe8;" horiz-adv-x="1157" d="M74 420q0 176 90 328.5t239.5 243.5t319.5 91q111 0 201 -36.5t141 -102t51 -151.5q0 -166 -136 -258.5t-376 -90.5h-295v-20q0 -111 59.5 -169t170.5 -58q82 0 165.5 31.5t145.5 82.5l135 -178q-82 -74 -208 -116t-251 -42q-135 0 -237.5 56.5t-158.5 157t-56 231.5z M356 635h285q109 0 169 30.5t60 88.5q0 49 -45 78.5t-114 29.5q-119 0 -211 -61.5t-144 -165.5zM507 1444l236 45l176 -311h-168z" />
<glyph unicode="&#xe9;" horiz-adv-x="1157" d="M74 420q0 176 90 328.5t239.5 243.5t319.5 91q111 0 201 -36.5t141 -102t51 -151.5q0 -166 -136 -258.5t-376 -90.5h-295v-20q0 -111 59.5 -169t170.5 -58q82 0 165.5 31.5t145.5 82.5l135 -178q-82 -74 -208 -116t-251 -42q-135 0 -237.5 56.5t-158.5 157t-56 231.5z M356 635h285q109 0 169 30.5t60 88.5q0 49 -45 78.5t-114 29.5q-119 0 -211 -61.5t-144 -165.5zM532 1178l305 311l230 -45l-355 -266h-180z" />
<glyph unicode="&#xea;" horiz-adv-x="1157" d="M74 420q0 176 90 328.5t239.5 243.5t319.5 91q111 0 201 -36.5t141 -102t51 -151.5q0 -166 -136 -258.5t-376 -90.5h-295v-20q0 -111 59.5 -169t170.5 -58q82 0 165.5 31.5t145.5 82.5l135 -178q-82 -74 -208 -116t-251 -42q-135 0 -237.5 56.5t-158.5 157t-56 231.5z M356 635h285q109 0 169 30.5t60 88.5q0 49 -45 78.5t-114 29.5q-119 0 -211 -61.5t-144 -165.5zM426 1178l273 295h213l153 -295h-158l-120 161l-193 -161h-168z" />
<glyph unicode="&#xeb;" horiz-adv-x="1157" d="M74 420q0 176 90 328.5t239.5 243.5t319.5 91q111 0 201 -36.5t141 -102t51 -151.5q0 -166 -136 -258.5t-376 -90.5h-295v-20q0 -111 59.5 -169t170.5 -58q82 0 165.5 31.5t145.5 82.5l135 -178q-82 -74 -208 -116t-251 -42q-135 0 -237.5 56.5t-158.5 157t-56 231.5z M356 635h285q109 0 169 30.5t60 88.5q0 49 -45 78.5t-114 29.5q-119 0 -211 -61.5t-144 -165.5zM442 1323q0 55 41 96t96 41q49 0 83 -34.5t34 -84.5q0 -55 -42 -96t-93 -41q-54 0 -86.5 34t-32.5 85zM862 1323q0 55 42 96t95 41q51 0 84 -34.5t33 -84.5q0 -55 -42 -96 t-93 -41q-54 0 -86.5 34t-32.5 85z" />
<glyph unicode="&#xec;" horiz-adv-x="526" d="M27 0l221 1059h250l-222 -1059h-249zM67 1444l236 45l176 -311h-168z" />
<glyph unicode="&#xed;" horiz-adv-x="526" d="M27 0l221 1059h250l-222 -1059h-249zM303 1178l305 311l230 -45l-355 -266h-180z" />
<glyph unicode="&#xee;" horiz-adv-x="526" d="M27 0l221 1059h250l-222 -1059h-249zM78 1178l273 295h213l153 -295h-158l-120 161l-193 -161h-168z" />
<glyph unicode="&#xef;" horiz-adv-x="526" d="M27 0l221 1059h250l-222 -1059h-249zM94 1323q0 55 41 96t96 41q49 0 83 -34.5t34 -84.5q0 -55 -42 -96t-93 -41q-54 0 -86.5 34t-32.5 85zM514 1323q0 55 42 96t95 41q51 0 84 -34.5t33 -84.5q0 -55 -42 -96t-93 -41q-54 0 -86.5 34t-32.5 85z" />
<glyph unicode="&#xf0;" horiz-adv-x="1292" d="M90 403q0 158 75 299.5t205 227.5t285 86q102 0 175 -40t131 -114q-39 152 -183 305l-252 -104l-39 149l170 70q-43 37 -133 107l236 84l71 -68l37 -35l215 88l37 -149l-141 -58q119 -137 177 -266t58 -272q0 -195 -87 -364t-238.5 -271.5t-337.5 -102.5 q-139 0 -243.5 53.5t-161 150.5t-56.5 224zM334 410q0 -100 61.5 -160t167.5 -60q103 0 192 55.5t142 147.5t53 195q0 98 -60.5 158.5t-168.5 60.5q-102 0 -191.5 -55.5t-142.5 -147.5t-53 -194z" />
<glyph unicode="&#xf1;" d="M27 0l221 1059h250l-27 -127q61 70 152.5 110.5t187.5 40.5q152 0 243 -89t91 -232q0 -41 -16.5 -128t-53.5 -261l-80 -373h-241l84 401q31 141 43 209t12 92q0 78 -44 123t-120 45q-106 0 -198.5 -64.5t-118.5 -154.5l-136 -651h-249zM418 1200q41 129 103.5 190.5 t150.5 61.5q47 0 82.5 -18.5t78.5 -53.5q27 -23 45.5 -33t36.5 -10q84 0 131 127l127 -39q-41 -129 -103.5 -190t-150.5 -61q-49 0 -85.5 19t-75.5 52q-27 23 -45.5 33t-36.5 10q-41 0 -76 -32.5t-57 -94.5z" />
<glyph unicode="&#xf2;" horiz-adv-x="1298" d="M74 438q0 172 95 320.5t252 236.5t331 88q129 0 237.5 -62.5t172 -167.5t63.5 -230q0 -172 -95.5 -321.5t-253 -238t-333.5 -88.5q-129 0 -236.5 62.5t-170 169t-62.5 231.5zM315 446q0 -70 34 -129t92.5 -94t125.5 -35q107 0 203 59.5t154.5 158t58.5 206.5 q0 106 -73.5 182t-180.5 76q-106 0 -202.5 -59t-154 -157.5t-57.5 -207.5zM532 1444l236 45l176 -311h-168z" />
<glyph unicode="&#xf3;" horiz-adv-x="1298" d="M74 438q0 172 95 320.5t252 236.5t331 88q129 0 237.5 -62.5t172 -167.5t63.5 -230q0 -172 -95.5 -321.5t-253 -238t-333.5 -88.5q-129 0 -236.5 62.5t-170 169t-62.5 231.5zM315 446q0 -70 34 -129t92.5 -94t125.5 -35q107 0 203 59.5t154.5 158t58.5 206.5 q0 106 -73.5 182t-180.5 76q-106 0 -202.5 -59t-154 -157.5t-57.5 -207.5zM557 1178l305 311l230 -45l-355 -266h-180z" />
<glyph unicode="&#xf4;" horiz-adv-x="1298" d="M74 438q0 172 95 320.5t252 236.5t331 88q129 0 237.5 -62.5t172 -167.5t63.5 -230q0 -172 -95.5 -321.5t-253 -238t-333.5 -88.5q-129 0 -236.5 62.5t-170 169t-62.5 231.5zM315 446q0 -70 34 -129t92.5 -94t125.5 -35q107 0 203 59.5t154.5 158t58.5 206.5 q0 106 -73.5 182t-180.5 76q-106 0 -202.5 -59t-154 -157.5t-57.5 -207.5zM450 1178l273 295h213l153 -295h-158l-120 161l-193 -161h-168z" />
<glyph unicode="&#xf5;" horiz-adv-x="1298" d="M74 438q0 172 95 320.5t252 236.5t331 88q129 0 237.5 -62.5t172 -167.5t63.5 -230q0 -172 -95.5 -321.5t-253 -238t-333.5 -88.5q-129 0 -236.5 62.5t-170 169t-62.5 231.5zM315 446q0 -70 34 -129t92.5 -94t125.5 -35q107 0 203 59.5t154.5 158t58.5 206.5 q0 106 -73.5 182t-180.5 76q-106 0 -202.5 -59t-154 -157.5t-57.5 -207.5zM422 1200q41 129 103.5 190.5t150.5 61.5q47 0 82.5 -18.5t78.5 -53.5q27 -23 45.5 -33t36.5 -10q84 0 131 127l127 -39q-41 -129 -103.5 -190t-150.5 -61q-49 0 -85.5 19t-75.5 52q-27 23 -45.5 33 t-36.5 10q-41 0 -76 -32.5t-57 -94.5z" />
<glyph unicode="&#xf6;" horiz-adv-x="1298" d="M74 438q0 172 95 320.5t252 236.5t331 88q129 0 237.5 -62.5t172 -167.5t63.5 -230q0 -172 -95.5 -321.5t-253 -238t-333.5 -88.5q-129 0 -236.5 62.5t-170 169t-62.5 231.5zM315 446q0 -70 34 -129t92.5 -94t125.5 -35q107 0 203 59.5t154.5 158t58.5 206.5 q0 106 -73.5 182t-180.5 76q-106 0 -202.5 -59t-154 -157.5t-57.5 -207.5zM467 1323q0 55 41 96t96 41q49 0 83 -34.5t34 -84.5q0 -55 -42 -96t-93 -41q-54 0 -86.5 34t-32.5 85zM887 1323q0 55 42 96t95 41q51 0 84 -34.5t33 -84.5q0 -55 -42 -96t-93 -41q-54 0 -86.5 34 t-32.5 85z" />
<glyph unicode="&#xf7;" horiz-adv-x="1228" d="M137 578l45 213h973l-45 -213h-973zM426 303q0 70 48 115t112 45q57 0 94 -38t37 -93q0 -63 -48 -112.5t-110 -49.5q-59 0 -96 38t-37 95zM578 1040q0 68 49 113t112 45q57 0 94 -39t37 -94q0 -63 -48 -111.5t-109 -48.5q-60 0 -97.5 39t-37.5 96z" />
<glyph unicode="&#xf8;" horiz-adv-x="1298" d="M-20 0l180 170q-86 123 -86 268q0 172 95 320.5t252 236.5t331 88q160 0 284 -92l74 68h209l-182 -170q88 -121 88 -266q0 -172 -95.5 -321.5t-253 -238t-333.5 -88.5q-158 0 -283 93l-72 -68h-208zM315 446q0 -59 25 -108l526 491q-63 41 -137 41q-106 0 -202.5 -59 t-154 -157.5t-57.5 -207.5zM432 229q59 -41 135 -41q106 0 202.5 59.5t155 158t58.5 206.5q0 60 -25 109z" />
<glyph unicode="&#xf9;" d="M96 297q0 41 16.5 128t53.5 261l80 373h241l-84 -402q-31 -141 -43 -208.5t-12 -92.5q0 -78 44 -123t120 -45q106 0 198.5 64.5t118.5 155.5l136 651h249l-221 -1059h-250l27 127q-61 -70 -152.5 -111t-187.5 -41q-152 0 -243 89.5t-91 232.5zM516 1444l236 45l176 -311 h-168z" />
<glyph unicode="&#xfa;" d="M96 297q0 41 16.5 128t53.5 261l80 373h241l-84 -402q-31 -141 -43 -208.5t-12 -92.5q0 -78 44 -123t120 -45q106 0 198.5 64.5t118.5 155.5l136 651h249l-221 -1059h-250l27 127q-61 -70 -152.5 -111t-187.5 -41q-152 0 -243 89.5t-91 232.5zM540 1178l305 311l230 -45 l-355 -266h-180z" />
<glyph unicode="&#xfb;" d="M96 297q0 41 16.5 128t53.5 261l80 373h241l-84 -402q-31 -141 -43 -208.5t-12 -92.5q0 -78 44 -123t120 -45q106 0 198.5 64.5t118.5 155.5l136 651h249l-221 -1059h-250l27 127q-61 -70 -152.5 -111t-187.5 -41q-152 0 -243 89.5t-91 232.5zM434 1178l273 295h213 l153 -295h-158l-120 161l-193 -161h-168z" />
<glyph unicode="&#xfc;" d="M96 297q0 41 16.5 128t53.5 261l80 373h241l-84 -402q-31 -141 -43 -208.5t-12 -92.5q0 -78 44 -123t120 -45q106 0 198.5 64.5t118.5 155.5l136 651h249l-221 -1059h-250l27 127q-61 -70 -152.5 -111t-187.5 -41q-152 0 -243 89.5t-91 232.5zM451 1323q0 55 41 96t96 41 q49 0 83 -34.5t34 -84.5q0 -55 -42 -96t-93 -41q-54 0 -86.5 34t-32.5 85zM871 1323q0 55 42 96t95 41q51 0 84 -34.5t33 -84.5q0 -55 -42 -96t-93 -41q-54 0 -86.5 34t-32.5 85z" />
<glyph unicode="&#xfd;" horiz-adv-x="1226" d="M-51 -309l76 172q57 -35 122 -35q47 0 89.5 20.5t68.5 57.5l70 86l-223 1067h258l143 -791l457 791h264l-686 -1143q-172 -285 -412 -285q-59 0 -119.5 16.5t-107.5 43.5zM528 1178l305 311l230 -45l-355 -266h-180z" />
<glyph unicode="&#xfe;" horiz-adv-x="1341" d="M-39 -352l371 1784h250l-111 -533q80 86 180.5 135t210.5 49q113 0 205 -56t144.5 -152.5t52.5 -215.5q0 -180 -82 -337.5t-222.5 -252t-306.5 -94.5q-109 0 -195.5 59.5t-133.5 160.5l-113 -547h-250zM385 424q0 -98 69.5 -167t172.5 -69q104 0 194 61.5t143.5 164 t53.5 219.5q0 100 -65.5 168.5t-164.5 68.5q-106 0 -199 -62.5t-148.5 -164.5t-55.5 -219z" />
<glyph unicode="&#xff;" horiz-adv-x="1226" d="M-51 -309l76 172q57 -35 122 -35q47 0 89.5 20.5t68.5 57.5l70 86l-223 1067h258l143 -791l457 791h264l-686 -1143q-172 -285 -412 -285q-59 0 -119.5 16.5t-107.5 43.5zM438 1323q0 55 41 96t96 41q49 0 83 -34.5t34 -84.5q0 -55 -42 -96t-93 -41q-54 0 -86.5 34 t-32.5 85zM858 1323q0 55 42 96t95 41q51 0 84 -34.5t33 -84.5q0 -55 -42 -96t-93 -41q-54 0 -86.5 34t-32.5 85z" />
<glyph unicode="&#x152;" horiz-adv-x="2119" d="M115 571q0 217 128 411t334.5 309.5t428.5 115.5h1198l-47 -233h-805l-66 -340h723l-47 -234h-729l-72 -367h799l-49 -233h-1182q-174 0 -314.5 73.5t-220 204t-79.5 293.5zM373 580q0 -102 50 -181.5t138 -122.5t201 -43h139l195 941h-123q-145 0 -285.5 -86.5 t-227.5 -224.5t-87 -283z" />
<glyph unicode="&#x153;" horiz-adv-x="2052" d="M74 438q0 172 95 320.5t252 236.5t331 88q125 0 230 -59t171 -158q92 102 215 159.5t258 57.5q111 0 201 -36.5t141 -102t51 -151.5q0 -166 -136 -258.5t-376 -90.5h-295v-20q0 -111 59.5 -169t170.5 -58q82 0 166 31.5t145 82.5l135 -178q-82 -74 -208 -116t-250 -42 q-133 0 -235.5 55.5t-158.5 153.5q-98 -98 -227 -153.5t-266 -55.5q-129 0 -236.5 62.5t-170 169t-62.5 231.5zM315 446q0 -70 34 -129t92.5 -94t125.5 -35q107 0 203 59.5t154.5 158t58.5 206.5q0 106 -73.5 182t-180.5 76q-106 0 -202.5 -59t-154 -157.5t-57.5 -207.5z M1260 635h284q109 0 169.5 30.5t60.5 88.5q0 49 -45.5 78.5t-114.5 29.5q-119 0 -211 -61.5t-143 -165.5z" />
<glyph unicode="&#x178;" horiz-adv-x="1404" d="M199 1407h245l285 -657l545 657h297l-737 -879l-115 -528h-260l114 528zM580 1671q0 55 41 96t96 41q49 0 83 -34.5t34 -84.5q0 -55 -42 -96t-93 -41q-54 0 -86.5 34t-32.5 85zM1000 1671q0 55 42 96t95 41q51 0 84 -34.5t33 -84.5q0 -55 -42 -96t-93 -41q-54 0 -86.5 34 t-32.5 85z" />
<glyph unicode="&#x2c6;" horiz-adv-x="897" d="M264 1178l273 295h213l153 -295h-158l-120 161l-193 -161h-168z" />
<glyph unicode="&#x2dc;" horiz-adv-x="827" d="M199 1200q41 129 103.5 190.5t150.5 61.5q47 0 82.5 -18.5t78.5 -53.5q27 -23 45.5 -33t36.5 -10q84 0 131 127l127 -39q-41 -129 -103.5 -190t-150.5 -61q-49 0 -85.5 19t-75.5 52q-27 23 -45.5 33t-36.5 10q-41 0 -76 -32.5t-57 -94.5z" />
<glyph unicode="&#x2000;" horiz-adv-x="997" />
<glyph unicode="&#x2001;" horiz-adv-x="1995" />
<glyph unicode="&#x2002;" horiz-adv-x="997" />
<glyph unicode="&#x2003;" horiz-adv-x="1995" />
<glyph unicode="&#x2004;" horiz-adv-x="665" />
<glyph unicode="&#x2005;" horiz-adv-x="498" />
<glyph unicode="&#x2006;" horiz-adv-x="332" />
<glyph unicode="&#x2007;" horiz-adv-x="332" />
<glyph unicode="&#x2008;" horiz-adv-x="249" />
<glyph unicode="&#x2009;" horiz-adv-x="399" />
<glyph unicode="&#x200a;" horiz-adv-x="110" />
<glyph unicode="&#x2010;" horiz-adv-x="753" d="M84 453l47 219h551l-47 -219h-551z" />
<glyph unicode="&#x2011;" horiz-adv-x="753" d="M84 453l47 219h551l-47 -219h-551z" />
<glyph unicode="&#x2012;" horiz-adv-x="753" d="M84 453l47 219h551l-47 -219h-551z" />
<glyph unicode="&#x2013;" horiz-adv-x="1175" d="M86 455l43 215h975l-45 -215h-973z" />
<glyph unicode="&#x2014;" horiz-adv-x="1800" d="M86 455l43 215h1600l-46 -215h-1597z" />
<glyph unicode="&#x2018;" horiz-adv-x="579" d="M221 991q0 109 72 209t199 211l94 -86q-104 -88 -170 -197q55 0 91 -36.5t36 -96.5q0 -74 -53.5 -126t-122.5 -52q-68 0 -107 47t-39 127z" />
<glyph unicode="&#x2019;" horiz-adv-x="579" d="M237 899q104 88 170 197q-55 0 -91 36.5t-36 96.5q0 74 53.5 126t122.5 52q68 0 107 -47t39 -127q0 -109 -72 -209t-199 -211z" />
<glyph unicode="&#x201c;" horiz-adv-x="1071" d="M221 983q0 109 72 209t199 211l94 -86q-104 -88 -170 -197q55 0 91 -36.5t36 -96.5q0 -74 -53.5 -126t-122.5 -52q-68 0 -107 47t-39 127zM711 983q0 109 71.5 209t198.5 211l94 -86q-104 -88 -170 -197q55 0 91 -36.5t36 -96.5q0 -74 -53 -126t-123 -52q-68 0 -106.5 47 t-38.5 127z" />
<glyph unicode="&#x201d;" horiz-adv-x="1071" d="M237 899q104 88 170 197q-55 0 -91 36.5t-36 96.5q0 74 53.5 126t122.5 52q68 0 107 -47t39 -127q0 -109 -72 -209t-199 -211zM729 899q104 88 170 197q-55 0 -91 36.5t-36 96.5q0 74 53.5 126t122.5 52q68 0 107 -47t39 -127q0 -109 -72 -209t-199 -211z" />
<glyph unicode="&#x2022;" horiz-adv-x="864" d="M180 569q0 80 43 152t116 115t153 43q100 0 165.5 -65.5t65.5 -164.5q0 -80 -44 -151.5t-115.5 -114.5t-149.5 -43q-103 0 -168.5 65.5t-65.5 163.5z" />
<glyph unicode="&#x2026;" horiz-adv-x="1552" d="M43 121q0 74 54.5 125t123.5 51q61 0 101 -41t40 -100q0 -72 -53 -126.5t-121 -54.5q-65 0 -105 41t-40 105zM535 121q0 74 54.5 125t123.5 51q61 0 101 -41t40 -100q0 -72 -53 -126.5t-121 -54.5q-65 0 -105 41t-40 105zM1026 121q0 74 54.5 125t123.5 51q61 0 101 -41 t40 -100q0 -72 -53 -126.5t-121 -54.5q-65 0 -105 41t-40 105z" />
<glyph unicode="&#x202f;" horiz-adv-x="399" />
<glyph unicode="&#x2039;" horiz-adv-x="686" d="M68 518l415 412l197 -45l-373 -365l215 -370l-203 -48z" />
<glyph unicode="&#x203a;" horiz-adv-x="690" d="M2 150l375 370l-217 365l200 45l254 -412l-417 -416z" />
<glyph unicode="&#x205f;" horiz-adv-x="498" />
<glyph unicode="&#x20ac;" horiz-adv-x="1421" d="M-45 492l29 145h139q6 80 29 164h-134l31 145h162q74 141 196.5 252t278.5 172.5t322 61.5q143 0 277 -66t216 -170l-207 -154q-47 70 -133 113t-180 43q-141 0 -269 -68.5t-214 -183.5h542l-30 -145h-592q-33 -82 -39 -164h596l-29 -145h-557q33 -125 137.5 -204 t231.5 -79q90 0 198.5 47t188.5 123l155 -182q-115 -96 -274.5 -159t-296.5 -63q-147 0 -276 68t-215 185.5t-109 263.5h-174z" />
<glyph unicode="&#x25fc;" horiz-adv-x="1054" d="M0 0v1055h1055v-1055h-1055z" />
</font>
</defs>
</svg>
