<svg xmlns="http://www.w3.org/2000/svg" viewBox="0 0 16 16"><title>email-icon</title><g id="Layer_2" data-name="Layer 2"><g id="Layer_1-2" data-name="Layer 1"><path d="M8,16a8,8,0,1,1,8-8A8,8,0,0,1,8,16ZM8,.47A7.53,7.53,0,1,0,15.53,8,7.54,7.54,0,0,0,8,.47Z"/><polygon points="12.5 10.79 12.5 5.21 9.4 8 12.5 10.79"/><polygon points="7.99 9.26 7.11 8.47 4.01 11.26 11.98 11.26 8.88 8.47 7.99 9.26"/><polygon points="11.98 4.74 4.01 4.74 7.99 8.33 11.98 4.74"/><polygon points="3.5 5.21 3.5 10.79 6.6 8 3.5 5.21"/></g></g></svg>