<svg xmlns="http://www.w3.org/2000/svg" viewBox="0 0 16 16"><title>phone-icon</title><g id="Layer_2" data-name="Layer 2"><g id="Layer_1-2" data-name="Layer 1"><path d="M12.26,10.44,10.44,9.23a.54.54,0,0,0-.71.11L9.2,10a.23.23,0,0,1-.29.06L8.81,10A6,6,0,0,1,7.22,8.78,6,6,0,0,1,6,7.19l-.06-.1A.23.23,0,0,1,6,6.8l.69-.53a.54.54,0,0,0,.11-.71L5.56,3.74a.53.53,0,0,0-.72-.16L4.08,4a1.09,1.09,0,0,0-.49.64c-.27,1-.07,2.72,2.48,5.27,2,2,3.52,2.56,4.56,2.56a2.8,2.8,0,0,0,.7-.09,1.09,1.09,0,0,0,.64-.49l.45-.76a.53.53,0,0,0-.16-.72Z"/><path d="M8,16a8,8,0,1,1,8-8A8,8,0,0,1,8,16ZM8,.47A7.53,7.53,0,1,0,15.53,8,7.54,7.54,0,0,0,8,.47Z"/></g></g></svg>